<?xml version="1.0" encoding="UTF-8" standalone="no"?>
<!-- Created with Inkscape (http://www.inkscape.org/) -->

<svg
   xmlns:dc="http://purl.org/dc/elements/1.1/"
   xmlns:cc="http://creativecommons.org/ns#"
   xmlns:rdf="http://www.w3.org/1999/02/22-rdf-syntax-ns#"
   xmlns:svg="http://www.w3.org/2000/svg"
   xmlns="http://www.w3.org/2000/svg"
   xmlns:sodipodi="http://sodipodi.sourceforge.net/DTD/sodipodi-0.dtd"
   xmlns:inkscape="http://www.inkscape.org/namespaces/inkscape"
   width="280"
   height="207.895"
   viewBox="0 0 74.083332 55.005555"
   version="1.1"
   id="svg8"
   inkscape:version="0.92.4 (5da689c313, 2019-01-14)"
   sodipodi:docname="Shield of the University of Adelaide.svg">
  <title
     id="title1984">Shield of the University of Adelaide</title>
  <defs
     id="defs2">
    <clipPath
       id="clipPath831"
       clipPathUnits="userSpaceOnUse">
      <path
         inkscape:connector-curvature="0"
         id="path829"
         d="M 28.339,28.346 H 566.922 V 811.043 H 28.339 Z" />
    </clipPath>
    <clipPath
       id="clipPath845"
       clipPathUnits="userSpaceOnUse">
      <path
         inkscape:connector-curvature="0"
         id="path843"
         d="M 0,0 H 595.276 V 841.89 H 0 Z" />
    </clipPath>
    <clipPath
       id="clipPath853"
       clipPathUnits="userSpaceOnUse">
      <path
         inkscape:connector-curvature="0"
         id="path851"
         d="M 19.3394,581.961 H 575.922 V 27.3465 H 19.3394 Z" />
    </clipPath>
    <linearGradient
       id="linearGradient869"
       spreadMethod="pad"
       gradientTransform="matrix(0,546.6142,546.6142,0,28.339376,28.346466)"
       gradientUnits="userSpaceOnUse"
       y2="0"
       x2="1"
       y1="0"
       x1="0">
      <stop
         id="stop859"
         offset="0"
         style="stop-opacity:1;stop-color:#ffffff" />
      <stop
         id="stop861"
         offset="0.6172"
         style="stop-opacity:1;stop-color:#ffffff" />
      <stop
         id="stop863"
         offset="0.7534"
         style="stop-opacity:0;stop-color:#ffffff" />
      <stop
         id="stop865"
         offset="0.95045497"
         style="stop-opacity:0;stop-color:#ffffff" />
      <stop
         id="stop867"
         offset="1"
         style="stop-opacity:0;stop-color:#ffffff" />
    </linearGradient>
    <mask
       id="mask871"
       height="1"
       width="1"
       y="0"
       x="0"
       maskUnits="userSpaceOnUse">
      <g
         id="g881">
        <g
           id="g879">
          <g
             id="g877">
            <g
               id="g875">
              <path
                 inkscape:connector-curvature="0"
                 id="path873"
                 style="fill:url(#linearGradient869);stroke:none"
                 d="M -32768,32767 H 32767 V -32768 H -32768 Z" />
            </g>
          </g>
        </g>
      </g>
    </mask>
    <clipPath
       id="clipPath885"
       clipPathUnits="userSpaceOnUse">
      <path
         inkscape:connector-curvature="0"
         id="path883"
         d="M 19.3394,581.961 H 575.922 V 27.3465 H 19.3394 Z" />
    </clipPath>
    <clipPath
       id="clipPath915"
       clipPathUnits="userSpaceOnUse">
      <path
         inkscape:connector-curvature="0"
         id="path913"
         d="M 19.3394,818.043 H 575.936 V 28.2374 H 19.3394 Z" />
    </clipPath>
    <clipPath
       id="clipPath963"
       clipPathUnits="userSpaceOnUse">
      <path
         inkscape:connector-curvature="0"
         id="path961"
         d="m 53.15,714.385 h 94.773 v 70.368 H 53.15 Z" />
    </clipPath>
    <clipPath
       id="clipPath975"
       clipPathUnits="userSpaceOnUse">
      <path
         inkscape:connector-curvature="0"
         id="path973"
         d="m 53.15,695.318 h 94.773 v 89.436 H 53.15 Z" />
    </clipPath>
  </defs>
  <sodipodi:namedview
     id="base"
     pagecolor="#ffffff"
     bordercolor="#666666"
     borderopacity="1.0"
     inkscape:pageopacity="0.0"
     inkscape:pageshadow="2"
     inkscape:zoom="1.4"
     inkscape:cx="167.00626"
     inkscape:cy="125.77826"
     inkscape:document-units="mm"
     inkscape:current-layer="layer1"
     showgrid="false"
     units="px"
     inkscape:window-width="1600"
     inkscape:window-height="837"
     inkscape:window-x="-8"
     inkscape:window-y="-8"
     inkscape:window-maximized="1" />
  <metadata
     id="metadata5">
    <rdf:RDF>
      <cc:Work
         rdf:about="">
        <dc:format>image/svg+xml</dc:format>
        <dc:type
           rdf:resource="http://purl.org/dc/dcmitype/StillImage" />
        <dc:title>Shield of the University of Adelaide</dc:title>
      </cc:Work>
    </rdf:RDF>
  </metadata>
  <g
     inkscape:label="Layer 1"
     inkscape:groupmode="layer"
     id="layer1"
     transform="translate(0,-241.99443)">
    <g
       id="g1982"
       transform="matrix(2.215821,0,0,2.215821,454.93535,213.343)">
      <g
         transform="matrix(0.35277777,0,0,-0.35277777,-224.06246,289.77373)"
         id="g957">
        <g
           clip-path="url(#clipPath963)"
           id="g959">
          <g
             transform="translate(56.7646,732.155)"
             id="g965">
            <path
               id="path967"
               transform="matrix(0.75000002,0,0,-0.75000002,578.3731,89.250867)"
               d="m -726.83789,107.90625 0.01,0.11328 c 0.044,0.688 0.043,2.19129 0.043,4.14063 0.003,2.03733 -0.1996,6.0127 -0.32226,6.7207 l -0.0234,0.1543 0.15039,-0.0332 c 0.196,-0.0467 0.37416,-0.0762 0.54883,-0.0762 0.17333,0 0.35234,0.0302 0.51367,0.0742 l 0.15039,0.041 -0.0195,-0.1543 c -0.076,-0.60267 -0.13867,-3.88037 -0.13867,-5.20703 0,-1.42134 0.025,-2.30529 0.041,-2.89063 2.59734,2.76534 5.34392,5.66886 7.64258,8.38086 l 0.0312,0.0352 h 0.0488 0.2168 0.10547 l -0.002,-0.10742 c -0.016,-0.69467 -0.0449,-4.11727 -0.0449,-5.69727 0,-1.20133 0.15276,-4.27107 0.2461,-5.17773 l 0.0137,-0.14844 -0.14453,0.0391 c -0.16534,0.0453 -0.31009,0.0762 -0.46875,0.0762 -0.15867,0 -0.33538,-0.0322 -0.49805,-0.0762 l -0.13672,-0.0391 0.008,0.14453 c 0.11734,2.308 0.1211,5.21859 0.1211,7.91992 -1.91734,-1.95066 -5.21021,-5.53993 -7.65821,-8.19726 l -0.0293,-0.0352 z m 49.7168,0.004 c -2.1,10e-4 -3.45889,1.25001 -3.46289,3.02734 -0.005,1.88133 1.28524,2.52806 2.5039,3.02539 1.236,0.51333 2.37972,0.89819 2.37305,2.24219 -0.004,1.192 -0.78671,2.13858 -2.10938,2.14258 -1.28,0 -2.02151,-0.8474 -2.35351,-1.55274 l -0.0293,-0.0586 h -0.0645 -0.2793 l -0.008,0.0918 c -0.0653,0.58667 -0.10906,0.88152 -0.28906,1.35352 l -0.0274,0.0703 0.0606,0.0469 c 0.54533,0.44 1.30733,0.90625 2.61133,0.90625 h 0.008 c 2.43333,-0.004 3.89248,-1.64718 3.89648,-3.58985 0.004,-1.776 -1.28924,-2.36632 -2.5039,-2.84765 -1.23467,-0.496 -2.37634,-0.89372 -2.375,-2.26172 0.004,-1.07467 0.77986,-1.81241 1.89453,-1.81641 1.09733,0 1.53071,0.82406 1.74805,1.38672 l 0.0254,0.0703 h 0.33984 l 0.0176,-0.084 c 0.124,-0.58667 0.22758,-0.9321 0.40625,-1.27344 l 0.041,-0.0762 -0.0644,-0.0527 c -0.63733,-0.512 -1.36737,-0.75267 -2.35937,-0.75 z m 27.50195,0.14453 -0.25391,0.0586 c -0.19466,0.044 -0.38684,0.0742 -0.57617,0.0742 -0.192,0 -0.38532,-0.0302 -0.58398,-0.0742 l -0.0801,-0.0195 -0.0371,0.0762 c -0.80667,1.70534 -1.89079,3.71717 -2.82813,5.20117 -1.032,-1.78533 -1.97751,-3.48845 -2.85351,-5.20312 l -0.0371,-0.0703 -0.0703,0.0137 c -0.276,0.0453 -0.56661,0.0762 -0.83594,0.0762 -0.26933,0 -0.56127,-0.0308 -0.83594,-0.0762 l -0.23437,-0.0391 0.13086,0.19921 c 0.64133,0.95867 3.10671,5.15382 3.74804,6.25782 0,1.64666 -0.002,3.27466 -0.125,4.36132 l -0.0137,0.13477 0.13281,-0.0234 c 0.26,-0.0453 0.50752,-0.0742 0.74219,-0.0742 0.24133,0 0.48148,0.0289 0.74414,0.0742 l 0.13086,0.0234 -0.0117,-0.13477 c -0.0733,-0.94799 -0.12314,-3.02315 -0.11914,-4.53515 0.66134,-1.29333 1.77128,-3.08399 3.72461,-6.08399 z m -80.72461,0.008 -0.15039,0.0527 c -0.128,0.0427 -0.28969,0.0742 -0.42969,0.0742 -0.208,0 -0.41728,-0.0315 -0.61328,-0.0781 l -0.14648,-0.0332 0.0215,0.15235 c 0.0893,0.58267 0.0918,2.07624 0.0918,5.01758 0.003,0.97466 -0.003,2.24395 -0.41602,3.25195 -0.41866,1.01067 -1.20647,1.7642 -2.86914,1.76953 -3.36533,-0.004 -3.33751,-2.61747 -3.35351,-4.74414 0,-2.28933 0.0935,-4.39607 0.18554,-5.30273 l 0.0156,-0.14258 -0.14063,0.0312 c -0.19333,0.0467 -0.43591,0.0781 -0.64258,0.0781 -0.24,0 -0.54311,-0.0315 -0.7871,-0.0781 l -0.12891,-0.0234 0.006,0.13086 c 0.032,0.89867 0.0937,2.30453 0.0937,4.00586 0,0.76667 -0.0755,1.48193 -0.0781,2.44727 0,1.51733 0.34504,2.65406 1.09571,3.41406 0.75066,0.76 1.89012,1.11914 3.43945,1.11914 h 0.0215 c 2.82134,0 4.47414,-1.78846 4.49414,-4.56446 0.0307,-2.25733 0.1553,-4.98196 0.2793,-6.41796 z m 60.26953,0.0254 -0.125,0.0234 c -0.26133,0.0467 -0.50219,0.0762 -0.74219,0.0762 -0.24,0 -0.47961,-0.0295 -0.73828,-0.0762 l -0.13086,-0.0215 0.008,0.12696 c 0.0613,1.33333 0.12304,2.67848 0.12304,4.00781 v 2.66211 c 0,1.33067 -0.0617,2.67581 -0.12304,4.00781 l -0.008,0.12891 0.13086,-0.0215 c 0.25867,-0.0453 0.49828,-0.0742 0.73828,-0.0742 0.24,0 0.48086,0.0289 0.74219,0.0742 l 0.125,0.0215 -0.002,-0.12891 c -0.0653,-1.332 -0.125,-2.67714 -0.125,-4.00781 v -2.66211 c 0,-1.32933 0.0597,-2.67448 0.125,-4.00781 z m -95.61914,0.002 0.006,0.13086 c 0.064,1.33067 0.12109,2.67458 0.12109,4.00391 v 2.66406 c 0,1.32667 -0.0571,2.67386 -0.12109,4.00586 l -0.006,0.12891 0.12695,-0.0215 c 0.25867,-0.0453 0.50157,-0.0762 0.74024,-0.0762 0.24133,0 0.48219,0.0308 0.74219,0.0762 l 0.12695,0.0215 -0.004,-0.12891 c -0.064,-1.332 -0.12695,-2.67919 -0.12695,-4.00586 v -1.29297 c 1.05067,-0.0133 2.08677,-0.0273 3.13477,-0.0273 1.04933,0 2.08152,0.014 3.13085,0.0273 v 1.29297 c 0,1.32667 -0.0617,2.67386 -0.12304,4.00586 l -0.004,0.12891 0.12695,-0.0215 c 0.25867,-0.0453 0.50157,-0.0762 0.74024,-0.0762 0.23867,0 0.48023,0.0308 0.74023,0.0762 l 0.12891,0.0215 -0.008,-0.12891 c -0.0627,-1.332 -0.12305,-2.67919 -0.12305,-4.00586 v -2.66406 c 0,-1.32667 0.0604,-2.67324 0.12305,-4.00391 l 0.008,-0.13086 -0.12891,0.0215 c -0.26,0.0467 -0.50156,0.0762 -0.74023,0.0762 -0.23867,0 -0.48157,-0.0295 -0.74024,-0.0762 l -0.12695,-0.0215 0.004,0.13086 c 0.0613,1.33067 0.12304,2.67724 0.12304,4.00391 v 0.43945 c -1.05066,0.0147 -2.08419,0.043 -3.13085,0.043 -1.048,0 -2.08277,-0.0283 -3.13477,-0.043 v -0.43945 c 0,-1.32667 0.063,-2.67324 0.12695,-4.00391 l 0.004,-0.13086 -0.12695,0.0215 c -0.26,0.0467 -0.50086,0.0762 -0.74219,0.0762 -0.23867,0 -0.48157,-0.0295 -0.74024,-0.0762 z m 51.23242,0 0.006,0.12696 c 0.0627,1.33333 0.125,2.68114 0.125,4.00781 v 2.66211 c 0,1.33067 -0.0623,2.67581 -0.125,4.00781 l -0.006,0.12891 0.12891,-0.0215 c 0.26,-0.0453 0.50157,-0.0742 0.74023,-0.0742 0.24,0 0.48157,0.0289 0.74024,0.0742 l 0.12695,0.0215 -0.006,-0.12891 c -0.0627,-1.332 -0.12305,-2.67714 -0.12305,-4.00781 v -2.66211 c 0,-1.32667 0.0604,-2.67448 0.12305,-4.00781 l 0.006,-0.12696 -0.12695,0.0215 c -0.25867,0.0467 -0.50024,0.0762 -0.74024,0.0762 -0.23866,0 -0.48023,-0.0295 -0.74023,-0.0762 z m -32.8125,0.0117 -0.13281,0.006 c -0.91467,0.0507 -1.82662,0.0801 -2.75195,0.0801 -0.928,0 -1.83763,-0.0294 -2.76563,-0.0801 l -0.11523,-0.004 0.006,0.11523 c 0.0627,1.31467 0.12304,2.6609 0.12304,3.99023 v 2.66407 c 0,1.32666 -0.0604,2.67348 -0.12304,4.02148 l -0.006,0.11328 0.11523,-0.004 c 0.94267,-0.0453 1.8685,-0.0781 2.8125,-0.0781 0.94,0 1.87059,0.0328 2.78125,0.0781 l 0.13477,0.008 -0.0274,-0.13477 c -0.0293,-0.13066 -0.0449,-0.29573 -0.0449,-0.42773 0,-0.132 0.0156,-0.32903 0.0449,-0.45703 l 0.0332,-0.1543 -0.1543,0.0293 c -0.93333,0.18133 -2.69983,0.20117 -4.0625,0.20117 -0.012,-0.41067 -0.0254,-1.1407 -0.0254,-2.2207 0,-1.35467 -0.003,-1.79592 0.008,-2.14258 0.80534,0.003 2.64159,0.0366 3.65625,0.14062 l 0.13867,0.0137 -0.0273,-0.13672 c -0.0293,-0.148 -0.0469,-0.29536 -0.0469,-0.44336 0,-0.148 0.0175,-0.31561 0.0469,-0.46094 l 0.0273,-0.13477 -0.13867,0.01 c -0.89466,0.0747 -1.89039,0.1503 -3.65039,0.1543 -10e-4,-0.42267 -0.0137,-1.2015 -0.0137,-1.9375 0,-0.71734 0.0386,-1.2399 0.0586,-1.86524 1.93334,0.004 2.68156,0.10917 3.96289,0.20117 l 0.13672,0.01 -0.0273,-0.13281 c -0.0307,-0.148 -0.043,-0.2967 -0.043,-0.44336 0,-0.14934 0.0123,-0.2966 0.043,-0.44727 z m 57.05274,0 0.002,0.11719 c 0.0627,1.33067 0.125,2.67457 0.125,4.00391 v 2.66406 c 0,1.33067 -0.0623,2.67581 -0.125,4.00781 l -0.002,0.13086 0.125,-0.0254 c 0.26133,-0.0453 0.50023,-0.0723 0.74023,-0.0723 0.24,0 0.48086,0.0269 0.74219,0.0723 l 0.125,0.0254 -0.006,-0.13086 c -0.0613,-1.332 -0.12109,-2.67714 -0.12109,-4.00781 v -1.02539 h 0.43945 c 1.32267,1.34666 3.36075,4.16503 3.96875,5.0957 l 0.0371,0.0566 0.0664,-0.01 c 0.288,-0.048 0.59348,-0.0762 0.88282,-0.0762 0.30133,0 0.60473,0.0282 0.91406,0.0762 l 0.2832,0.041 -0.18945,-0.21289 c -0.85467,-0.95733 -3.25424,-4.04134 -4.12891,-5.13867 1.20934,-0.212 3.07599,-1.05054 3.08399,-3.0332 10e-4,-0.94934 -0.38667,-1.60534 -1,-2 -0.616,-0.39867 -1.43951,-0.54812 -2.32617,-0.55078 -0.59734,0 -1.18439,0.0781 -1.76172,0.0781 -0.588,0 -1.1731,-0.0301 -1.75977,-0.0781 z m -77.55078,0.002 -0.14063,0.004 c -1.332,0.048 -2.66019,0.0801 -3.99219,0.0801 -1.32933,0 -2.66018,-0.0321 -3.99218,-0.0801 l -0.13868,-0.002 0.0371,0.13476 c 0.0453,0.16534 0.0723,0.31242 0.0723,0.45508 0,0.15467 -0.0269,0.31623 -0.0723,0.46289 l -0.0469,0.15235 0.16015,-0.0176 c 0.83334,-0.10533 2.14989,-0.16592 3.19922,-0.16992 0.028,1.03466 0.043,2.06823 0.043,3.10156 v 2.66406 c 0,1.32667 -0.0623,2.67386 -0.125,4.00586 l -0.004,0.12891 0.12695,-0.0215 c 0.26,-0.0453 0.50157,-0.0762 0.74023,-0.0762 0.24134,0 0.48157,0.0308 0.74024,0.0762 l 0.1289,0.0215 -0.006,-0.12891 c -0.0613,-1.332 -0.125,-2.67919 -0.125,-4.00586 V 112.225 c 0,-1.03333 0.015,-2.0669 0.043,-3.10156 1.05067,0.004 2.36918,0.0646 3.20117,0.16992 l 0.15821,0.0176 -0.0449,-0.14844 c -0.044,-0.14933 -0.0742,-0.31179 -0.0742,-0.45313 0,-0.156 0.0295,-0.30341 0.0762,-0.46875 z m 69.1875,0 0.006,0.11523 c 0.06,1.31467 0.125,2.6609 0.125,3.99023 v 2.66407 c 0,1.32666 -0.065,2.67348 -0.125,4.02148 l -0.01,0.11524 0.11523,-0.006 c 0.944,-0.0453 1.87179,-0.0781 2.81446,-0.0781 0.944,0 1.87058,0.0328 2.78125,0.0781 l 0.13867,0.008 -0.0332,-0.13477 c -0.0267,-0.13066 -0.041,-0.29449 -0.041,-0.42383 0,-0.13466 0.0157,-0.33293 0.041,-0.46093 l 0.0371,-0.1543 -0.15624,0.0293 c -0.93334,0.18133 -2.69789,0.1985 -4.06055,0.20117 -0.0147,-0.41067 -0.0273,-1.13804 -0.0273,-2.2207 0,-1.35467 4.4e-4,-1.79592 0.01,-2.14258 0.80267,0.004 2.63696,0.0366 3.6543,0.14062 l 0.14062,0.0137 -0.0293,-0.13672 c -0.0307,-0.148 -0.043,-0.29536 -0.043,-0.44336 0,-0.15067 0.0123,-0.31427 0.043,-0.46094 l 0.0254,-0.13477 -0.13672,0.0117 c -0.89334,0.076 -1.89111,0.14835 -3.64844,0.15235 -0.004,-0.42267 -0.0156,-1.2015 -0.0156,-1.9375 0,-0.71734 0.0419,-1.2399 0.0606,-1.86524 1.93067,0.004 2.68023,0.10917 3.96289,0.20117 l 0.13281,0.01 -0.0254,-0.13281 c -0.0293,-0.148 -0.043,-0.2967 -0.043,-0.44336 -10e-6,-0.14934 0.0136,-0.2966 0.043,-0.44727 l 0.0254,-0.1289 -0.13085,0.008 c -0.91334,0.0467 -1.82529,0.0762 -2.75196,0.0762 -0.92666,0 -1.83824,-0.0295 -2.76758,-0.0762 z m 38.83984,0 -0.14453,0.004 c -1.33067,0.0507 -2.6609,0.0801 -3.99024,0.0801 -1.328,0 -2.66152,-0.0294 -3.99218,-0.0801 l -0.13868,-0.002 0.0371,0.13476 c 0.044,0.16534 0.0723,0.31313 0.0723,0.45313 0,0.16 -0.0283,0.31818 -0.0723,0.46484 l -0.0449,0.1543 0.15625,-0.0195 c 0.832,-0.10533 2.15051,-0.16592 3.20117,-0.16992 0.028,1.032 0.043,2.06823 0.043,3.10156 v 2.66211 c 0,1.32933 -0.061,2.67581 -0.125,4.00781 l -0.008,0.12891 0.12891,-0.0215 c 0.26266,-0.0453 0.50352,-0.0762 0.74218,-0.0762 0.23867,0 0.48024,0.0308 0.74024,0.0762 l 0.1289,0.0215 -0.006,-0.12891 c -0.06,-1.332 -0.125,-2.67848 -0.125,-4.00781 v -2.66211 c 0,-1.03333 0.0143,-2.0669 0.0449,-3.10156 1.04933,0.004 2.36722,0.0646 3.19922,0.16992 l 0.16015,0.0195 -0.0469,-0.1543 c -0.0453,-0.14666 -0.0742,-0.30922 -0.0742,-0.44922 0,-0.15866 0.0289,-0.30341 0.0742,-0.46875 z m -50.8125,0.10937 c 1.50133,3.56 3.39231,8.12955 4.32031,10.68555 0.14,-0.0467 0.33848,-0.0762 0.50781,-0.0762 0.172,0 0.34496,0.0295 0.51563,0.0762 1.36267,-3.56267 2.84698,-7.12555 4.45898,-10.68555 -0.18666,0.048 -0.38488,0.0781 -0.57421,0.0781 -0.18534,0 -0.38827,-0.0301 -0.57227,-0.0781 -0.648,2.02933 -2.38496,6.64363 -3.51563,9.1543 -1.3,-3.12934 -2.61729,-6.41297 -3.52929,-9.1543 -0.26534,0.048 -0.54336,0.0781 -0.80469,0.0781 -0.264,0 -0.54664,-0.0301 -0.80664,-0.0781 z m 23.43359,0.67773 c 1.03867,0.0107 2.29288,0.37645 2.29688,1.92579 -0.004,1.75866 -1.60276,2.257 -2.85742,2.26367 -0.36,0 -0.67831,-0.0106 -0.93164,-0.0586 v -0.79882 c 0,-1.08134 0.0439,-2.16234 0.0879,-3.26368 0.31733,-0.0293 0.75763,-0.0683 1.40429,-0.0684 z m -88.80664,13.2168 v 0.26367 h 125.8711 v -0.26367 z m 20.4961,3.50781 c -1.73334,4.392 -5.34496,12.34418 -7.51563,17.07618 0.31733,-0.048 0.61155,-0.14649 1.07422,-0.14649 0.46533,0 0.70738,0.0985 0.99805,0.14649 0.808,-3.09734 1.78215,-5.26796 2.27148,-6.39063 h 6.17188 c 0.61066,1.34267 1.61017,3.46396 2.46484,6.39063 0.46267,-0.072 0.92588,-0.14649 1.56055,-0.14649 0.60933,0 1.02612,0.0745 1.43945,0.14649 -0.0493,-0.0987 -5.43969,-11.95351 -7.31836,-17.07618 -0.196,0.0507 -0.31711,0.0723 -0.53711,0.0723 -0.268,0 -0.41471,-0.0496 -0.60937,-0.0723 z m 58.67382,0 c -1.732,4.392 -5.34433,12.34418 -7.51367,17.07618 0.31734,-0.048 0.61022,-0.14649 1.07422,-0.14649 0.46267,0 0.70667,0.0985 1,0.14649 0.80667,-3.09734 1.78091,-5.26796 2.26758,-6.39063 h 6.17383 c 0.61066,1.34267 1.61151,3.46396 2.46484,6.39063 0.46267,-0.072 0.92588,-0.14649 1.56055,-0.14649 0.612,0 1.02612,0.0745 1.43945,0.14649 -0.048,-0.0987 -5.44031,-11.95351 -7.32031,-17.07618 -0.19333,0.0507 -0.31782,0.0723 -0.53516,0.0723 -0.268,0 -0.41666,-0.0496 -0.61133,-0.0723 z m -47.89257,0.14454 c 0.14666,2.612 0.19726,3.53916 0.19726,7.17382 0,5.608 -0.12292,7.29577 -0.29492,9.75977 1.39067,-0.072 1.95328,-0.0996 2.61328,-0.0996 0.63333,0 3.63357,0.0996 3.87891,0.0996 4.87866,0 9.26953,-2.73354 9.26953,-8.9082 0,-2.12134 -0.5596,-4.46115 -2.6836,-6.14649 -2.26799,-1.80266 -4.61184,-1.80273 -8.97851,-1.80273 -1.34133,0 -2.65929,-0.0268 -4.00195,-0.0762 z m 66.80273,0 c 0.14533,2.612 0.19531,3.53916 0.19531,7.17382 0,5.608 -0.12363,7.29577 -0.29297,9.75977 1.39067,-0.072 1.94876,-0.0996 2.60743,-0.0996 0.63466,0 3.6349,0.0996 3.8789,0.0996 4.88134,0 9.27344,-2.73354 9.27344,-8.9082 0,-2.12134 -0.56421,-4.46115 -2.68555,-6.14649 -2.26933,-1.80266 -4.60856,-1.80273 -8.97656,-1.80273 -1.34,0 -2.66,-0.0268 -4,-0.0762 z m -36.35351,0.0508 c 0.0493,1.04933 0.19726,4.65923 0.19726,7.97656 0,3.19733 -0.026,5.78163 -0.2207,8.9043 1.31733,-0.072 1.92755,-0.14649 4.07422,-0.14649 2.66,0 3.68553,0.0985 5.26953,0.14649 -0.048,-0.19334 -0.0977,-0.43746 -0.0977,-0.82813 0,-0.34267 0.0497,-0.5854 0.0977,-0.80273 -1.12134,0.19333 -3.17068,0.29101 -4.41602,0.29101 -0.60933,0 -1.09753,-1.1e-4 -2.26953,-0.0508 0,-7.58667 -10e-4,-9.24623 0.21875,-15.49023 -0.43733,0.0707 -0.90378,0.14648 -1.53711,0.14648 -0.608,0 -0.92574,-0.0758 -1.3164,-0.14648 z m 28.91015,0 c 0.172,4.46266 0.17188,4.68198 0.17188,8.19531 0,4.784 -0.0729,6.02821 -0.24219,8.68555 0.388,-0.072 0.75501,-0.14649 1.29101,-0.14649 0.53867,0 1.0503,0.0745 1.51563,0.14649 -0.076,-1.828 -0.17383,-3.77988 -0.17383,-8.17188 0,-2.90267 0.05,-5.80632 0.19531,-8.70898 -0.41333,0.096 -0.73468,0.14453 -1.41601,0.14453 -0.65867,0 -0.9498,-0.0485 -1.3418,-0.14453 z m -41.32812,0.0254 c 0.14666,2.388 0.19531,5.68171 0.19531,8.12304 0,5.31734 -0.12153,6.90505 -0.26953,8.73438 1.87866,-0.072 3.78282,-0.14648 5.66015,-0.14648 1.12267,-1e-5 2.27054,-1.9e-4 3.39454,0.14648 -0.0507,-0.244 -0.0996,-0.43992 -0.0996,-0.78125 0,-0.34133 0.0489,-0.56075 0.0996,-0.83008 -2.88134,0.29333 -4.85921,0.29297 -6.42188,0.29297 -0.0227,-0.66 -0.0703,-2.51263 -0.0703,-3.7793 0,-1.052 0.0248,-2.14793 0.0488,-3.19726 0.61066,-0.024 1.31789,-0.0488 1.97656,-0.0488 1.04933,0 2.51191,0.0728 3.78125,0.24219 -0.024,-0.26934 -0.0977,-0.48653 -0.0977,-0.75586 0,-0.34134 0.0483,-0.56013 0.0977,-0.82813 -1.90267,0.22 -3.82981,0.19197 -5.75781,0.16797 -0.024,-1.292 -0.0234,-1.58325 -0.0234,-3.16992 0,-1.43867 -0.002,-1.85402 0.0449,-2.80469 1.052,-0.0493 1.49243,-0.0488 2.37109,-0.0488 2.12134,0 2.97429,0.14441 3.87696,0.31641 -0.0493,-0.244 -0.0957,-0.43796 -0.0957,-0.7793 0,-0.31733 0.0464,-0.58551 0.0957,-0.85351 -1.244,0.12133 -2.46232,0.14453 -3.70899,0.14453 -1.70666,0 -3.38832,8e-4 -5.09765,-0.14453 z m 67.77539,0 c 0.14533,2.388 0.19531,5.68171 0.19531,8.12304 0,5.31734 -0.12153,6.90505 -0.26953,8.73438 1.87866,-0.072 3.78211,-0.14648 5.66211,-0.14648 1.12133,-1e-5 2.26529,-1.9e-4 3.39062,0.14648 -0.0493,-0.244 -0.0976,-0.43992 -0.0976,-0.78125 0,-0.34133 0.0483,-0.56075 0.0976,-0.83008 -2.88,0.29333 -4.85468,0.29297 -6.41601,0.29297 -0.0253,-0.66 -0.0723,-2.51263 -0.0723,-3.7793 0,-1.052 0.0229,-2.14793 0.0469,-3.19726 0.60933,-0.024 1.31656,-0.0488 1.97656,-0.0488 1.048,0 2.51263,0.0728 3.7793,0.24219 -0.024,-0.26934 -0.0957,-0.48653 -0.0957,-0.75586 0,-0.34134 0.0477,-0.56013 0.0957,-0.82813 -1.90134,0.22 -3.82653,0.19197 -5.75586,0.16797 -0.024,-1.292 -0.0234,-1.58325 -0.0234,-3.16992 0,-1.43867 -5.1e-4,-1.85402 0.0488,-2.80469 1.052,-0.0493 1.48718,-0.0488 2.36718,-0.0488 2.12134,0 2.97562,0.14441 3.87696,0.31641 -0.048,-0.244 -0.0957,-0.43796 -0.0957,-0.7793 0,-0.31733 0.0477,-0.58551 0.0957,-0.85351 -1.24267,0.12133 -2.4617,0.14453 -3.70703,0.14453 -1.70934,0 -3.39161,8e-4 -5.09961,-0.14453 z m -103.95508,1.0957 c -0.928,0 -1.76179,0.38279 -2.56445,1.32813 -0.944,1.12 -1.37564,2.37116 -1.79297,3.8125 h -1.37891 c -0.208,0.14533 -0.27266,0.44841 -0.11133,0.59375 h 1.33008 c -0.77067,2.61066 -1.32907,5.36581 -2.06641,7.89648 -0.368,1.23333 -0.70672,1.3457 -1.02539,1.3457 -0.35333,0 -0.83341,-0.25491 -1.21875,-0.65625 -0.0947,-0.11066 -0.23918,-0.15912 -0.36718,-0.0644 -0.176,0.128 -0.36914,0.39937 -0.36914,0.7207 0,0.24 0.30396,0.78516 1.16796,0.78516 0.94534,0 1.68517,-0.64124 1.92383,-0.86524 0.32,-0.32133 0.85034,-1.13812 1.26367,-2.57812 0.51467,-1.76267 0.94507,-3.30104 1.42774,-5.0957 0.192,-0.70267 0.32001,-1.21628 0.41601,-1.48828 h 1.98829 c 0.23866,-0.176 0.27153,-0.41775 0.1582,-0.59375 h -2 c 0.432,-1.52267 0.75033,-2.65909 1.48633,-3.73243 0.36933,-0.544 0.80425,-0.86523 1.15625,-0.86523 0.4,0 0.84848,0.28725 0.89648,1.16992 0.016,0.11067 0.0806,0.25586 0.22461,0.25586 0.256,0 0.68555,-0.49673 0.68555,-0.91406 0,-0.63867 -0.6398,-1.05469 -1.23047,-1.05469 z m 22.90625,0.0254 c 1.952,0 4.02637,-3.6e-4 5.73437,1.29297 2.048,1.536 2.46485,3.99941 2.46485,5.83008 0,1.952 -0.46504,4.70964 -2.73438,6.32031 -1.65733,1.17067 -4.00145,1.16992 -5.05078,1.16992 -1.17067,0 -1.77871,-0.0485 -2.60937,-0.14453 -0.072,-2.416 -0.0723,-2.92858 -0.0723,-7.39258 0,-2.24533 0.0257,-4.7338 0.12305,-6.98047 0.78,-0.0707 0.97386,-0.0957 2.14453,-0.0957 z m 66.80273,0 c 1.94934,0 4.02247,-3.6e-4 5.73047,1.29297 2.048,1.536 2.46485,3.99941 2.46485,5.83008 0,1.952 -0.46381,4.70964 -2.73047,6.32031 -1.66134,1.17067 -4.0034,1.16992 -5.05274,1.16992 -1.17066,0 -1.78271,-0.0485 -2.60937,-0.14453 -0.0733,-2.416 -0.0723,-2.92858 -0.0723,-7.39258 0,-2.24533 0.0224,-4.7338 0.1211,-6.98047 0.77866,-0.0707 0.9751,-0.0957 2.14843,-0.0957 z m -82.46484,2.07227 2.63476,6.05273 h -5.19726 z m 58.67773,0 2.63282,6.05273 h -5.19727 z m -74.76367,2.81836 c -0.65733,0 -1.37822,0.24101 -2.21289,1.04101 -1.08933,1.04134 -1.68014,2.59518 -1.74414,3.58985 -0.096,1.37733 0.57294,2.1289 1.59961,2.1289 0.432,0 1.30035,-0.0801 2.29102,-1.10547 1.18533,-1.21866 1.65059,-2.75476 1.69726,-3.63476 0.064,-1.17067 -0.49486,-2.01953 -1.63086,-2.01953 z m -0.11523,0.48046 c 0.56133,0 0.65796,0.56065 0.64062,1.05665 -0.032,0.84933 -0.78223,2.96677 -1.49023,3.91211 -0.51067,0.68666 -0.91167,0.83203 -1.26367,0.83203 -0.464,0 -0.68887,-0.46601 -0.65821,-1.02735 0.0493,-0.84666 0.67419,-2.75457 1.60352,-4.0039 0.464,-0.624 0.8493,-0.76954 1.16797,-0.76954 z"
               style="fill:#1a1a1a;fill-opacity:1;fill-rule:nonzero;stroke:none;stroke-width:1.33333325"
               inkscape:connector-curvature="0" />
          </g>
        </g>
      </g>
      <g
         transform="matrix(0.35277777,0,0,-0.35277777,-200.11541,31.485722)"
         id="g977" />
      <g
         transform="matrix(0.35277777,0,0,-0.35277777,-197.73134,31.486216)"
         id="g981" />
      <g
         transform="matrix(0.35277777,0,0,-0.35277777,-193.58546,28.635807)"
         id="g985" />
      <g
         transform="matrix(0.35277777,0,0,-0.35277777,-189.95629,31.53952)"
         id="g989" />
      <g
         transform="matrix(0.35277777,0,0,-0.35277777,-188.60882,31.485722)"
         id="g993" />
      <g
         transform="matrix(0.35277777,0,0,-0.35277777,-188.0012,28.631467)"
         id="g997" />
      <g
         transform="matrix(0.35277777,0,0,-0.35277777,-183.32379,31.486216)"
         id="g1001" />
      <g
         transform="matrix(0.35277777,0,0,-0.35277777,-180.13009,31.30009)"
         id="g1005" />
      <g
         transform="matrix(0.35277777,0,0,-0.35277777,-177.32357,31.485722)"
         id="g1009" />
      <g
         transform="matrix(0.35277777,0,0,-0.35277777,-175.45536,31.485722)"
         id="g1013" />
      <g
         transform="matrix(0.35277777,0,0,-0.35277777,-174.28502,28.646919)"
         id="g1017" />
      <g
         transform="matrix(0.35277777,0,0,-0.35277777,-204.5033,35.215359)"
         id="g1021" />
      <g
         transform="matrix(0.35277777,0,0,-0.35277777,-202.71468,35.10113)"
         id="g1025" />
      <g
         transform="matrix(0.35277777,0,0,-0.35277777,-199.9078,34.139069)"
         id="g1029" />
      <g
         transform="matrix(0.35277777,0,0,-0.35277777,-194.24642,33.9328)"
         id="g1033" />
      <g
         transform="matrix(0.35277777,0,0,-0.35277777,-190.05698,35.191546)"
         id="g1037" />
      <g
         transform="matrix(0.35277777,0,0,-0.35277777,-187.66888,37.399406)"
         id="g1041" />
      <g
         transform="matrix(0.35277777,0,0,-0.35277777,-184.38262,34.139069)"
         id="g1045" />
      <g
         transform="matrix(0.35277777,0,0,-0.35277777,-181.31708,33.287358)"
         id="g1049" />
      <g
         transform="matrix(0.35277777,0,0,-0.35277777,-176.57243,33.9328)"
         id="g1053" />
      <g
         transform="matrix(0.35277777,0,0,-0.35277777,-172.12528,35.191546)"
         id="g1057" />
      <g
         transform="matrix(0.35277777,0,0,-0.35277777,-181.94937,29.919318)"
         id="g1063" />
      <g
         transform="matrix(0.35277777,0,0,-0.35277777,-188.65278,24.457189)"
         id="g1067">
        <path
           inkscape:connector-curvature="0"
           id="path1069"
           style="fill:#ffffff;fill-opacity:1;fill-rule:nonzero;stroke:none"
           d="m 0,0 c -8.447,3.667 -12.766,10.268 -12.825,19.622 h 25.65 C 12.767,10.268 8.449,3.671 0,0" />
      </g>
      <g
         transform="matrix(0.35277777,0,0,-0.35277777,-185.93953,18.337553)"
         id="g1071">
        <path
           inkscape:connector-curvature="0"
           id="path1073"
           style="fill:#000000;fill-opacity:1;fill-rule:nonzero;stroke:none"
           d="M 0,0 H -0.808 V 1.01 H -1.89 V 2.004 L -2.385,1.821 c -0.675,-0.252 -1.256,-0.47 -2.63,-0.47 -1.631,0 -2.375,-0.38 -2.711,-0.66 -0.329,0.28 -1.067,0.66 -2.692,0.66 -1.374,0 -1.959,0.219 -2.634,0.47 l -0.495,0.185 V 1.01 h -1.081 V 0 h -1.081 v -10.503 l 7.059,0.004 c 0.006,-0.004 0.015,-0.009 0.03,-0.018 0.027,-0.484 0.397,-0.872 0.865,-0.872 0.449,0 0.817,0.366 0.864,0.835 0.035,0.016 0.069,0.036 0.11,0.055 l 7.055,-0.004 V 0 H 0" />
      </g>
      <g
         transform="matrix(0.35277777,0,0,-0.35277777,-184.12907,13.370724)"
         id="g1075">
        <path
           inkscape:connector-curvature="0"
           id="path1077"
           style="fill:#005a9c;fill-opacity:1;fill-rule:nonzero;stroke:none"
           d="M 0,0 C 0,-0.992 0.003,-9.198 0.003,-11.178 H -25.652 V 0 H 0" />
      </g>
      <g
         transform="matrix(0.35277777,0,0,-0.35277777,-183.68704,12.930352)"
         id="g1079">
        <path
           inkscape:connector-curvature="0"
           id="path1081"
           style="fill:#000000;fill-opacity:1;fill-rule:nonzero;stroke:none"
           d="m 0,0 h -28.16 v -12.859 c 0,-10.103 4.658,-17.195 13.842,-21.079 l 0.242,-0.105 0.245,0.105 c 9.18,3.886 13.834,10.977 13.834,21.079 z m -1.253,-1.248 c 0,-0.992 0.003,-9.198 0.003,-11.179 h -25.654 v 11.179 z m -12.823,-31.427 c -8.447,3.667 -12.764,10.268 -12.825,19.622 h 25.65 c -0.059,-9.354 -4.376,-15.95 -12.825,-19.622" />
      </g>
      <g
         transform="matrix(0.35277777,0,0,-0.35277777,-182.63658,22.408221)"
         id="g1083">
        <path
           inkscape:connector-curvature="0"
           id="path1085"
           style="fill:#ed1c2e;fill-opacity:1;fill-rule:nonzero;stroke:none"
           d="m 0,0 c -3.289,-0.718 -5.996,-1.934 -7.683,-3.451 l 0.022,-0.041 -0.087,0.02 1.19,-2.653 c -2.369,-1.173 -5.694,-2.05 -10.173,-2.05 h -0.152 c -4.506,0 -7.845,0.888 -10.218,2.072 l 1.098,2.551 0.058,0.101 c -1.693,1.517 -4.393,2.733 -7.691,3.451 l 0.003,-4.209 c 1.575,-0.53 2.591,-0.921 3.455,-1.704 l -0.392,-0.787 -0.796,-1.556 0.021,0.003 -0.153,-0.292 c 2.765,-2.473 8.301,-4.234 14.615,-4.234 h 0.152 c 6.312,0 11.84,1.761 14.605,4.234 l -1.32,2.639 c 0.864,0.776 1.88,1.172 3.446,1.697 L 0,0" />
      </g>
      <g
         transform="matrix(0.35277777,0,0,-0.35277777,-192.98023,25.275704)"
         id="g1087">
        <path
           id="path1089"
           transform="matrix(0.75000002,0,0,-0.75000002,547.03059,71.647666)"
           d="m -696.77734,93.628906 -0.49024,0.28711 0.21875,0.36914 c 0.14534,0.257334 0.37498,0.604115 0.68164,1.050782 l -1.30664,-1.185547 -0.57226,0.335937 1.37109,2.347656 0.49805,-0.285156 -0.23633,-0.398437 c -0.20133,-0.350667 -0.43522,-0.70712 -0.69922,-1.064453 l 1.33203,1.232421 0.57422,-0.335937 z m -31.82227,0.261719 c -0.3,-0.04587 -0.56533,0.09611 -0.73633,0.412109 -0.0893,0.170667 -0.12795,0.342667 -0.11328,0.5 0.0227,0.168 0.12253,0.35161 0.25586,0.59961 0.10933,0.22 0.21542,0.347588 0.10742,0.544922 -0.0787,0.138666 -0.19969,0.190333 -0.31836,0.125 -0.15733,-0.08533 -0.14114,-0.222704 -0.008,-0.470704 0.012,-0.024 0.0251,-0.04426 0.0371,-0.07227 l -0.50781,-0.275391 c -0.0307,0.04133 -0.0588,0.08491 -0.0801,0.128906 -0.26133,0.488 -0.15597,0.873433 0.33203,1.134766 0.46133,0.248 0.86171,0.118766 1.12305,-0.365234 0.092,-0.168 0.12918,-0.32537 0.11719,-0.470703 -0.0173,-0.190667 -0.12086,-0.365318 -0.24219,-0.583985 -0.14,-0.249333 -0.24506,-0.389073 -0.15039,-0.566406 0.0733,-0.129333 0.18515,-0.167328 0.28515,-0.111328 0.124,0.068 0.13349,0.211208 0.0215,0.421875 -0.008,0.0093 -0.0155,0.0173 -0.0195,0.0293 l 0.50781,0.271484 c 0.009,-0.02667 0.0296,-0.0495 0.043,-0.07617 0.236,-0.438666 0.11963,-0.817073 -0.34571,-1.066406 -0.105,-0.05733 -0.20859,-0.09408 -0.30859,-0.109375 z m 1.58984,0.826172 -0.54882,1.359375 c -0.16934,0.416 -0.28458,0.715604 -0.25391,0.960937 0.04,0.273334 0.21159,0.447365 0.54492,0.582032 0.35067,0.141333 0.61861,0.137125 0.83594,-0.04687 0.16667,-0.133334 0.25537,-0.345563 0.35937,-0.601563 0.0267,-0.06133 0.0494,-0.124026 0.0801,-0.193359 l 0.57227,-1.417969 -0.59375,-0.242187 -0.63672,1.585937 c -0.005,0.008 -0.01,0.02254 -0.0137,0.0332 -0.132,0.321333 -0.20501,0.494063 -0.40235,0.414063 -0.2,-0.07867 -0.13476,-0.267948 0.004,-0.613282 l 0.63672,-1.583984 z m 28.15821,0.05273 -1.36328,0.576172 1.05664,2.507813 1.36523,-0.572266 -0.2168,-0.511719 -0.77734,0.332031 -0.22851,-0.548828 0.71874,-0.308593 -0.21484,-0.501953 -0.71875,0.30664 -0.19531,-0.460937 0.78125,-0.330079 z m -25.85938,0.832031 -0.7832,2.607422 0.7207,0.21875 c 0.32,0.096 0.55291,0.144865 0.76758,0.01953 0.18533,-0.101334 0.33682,-0.288058 0.41016,-0.525391 0.088,-0.286667 0.0255,-0.524984 -0.17188,-0.708984 0.24534,-0.108 0.38051,-0.251943 0.45117,-0.47461 0.0747,-0.252 0.0335,-0.470765 -0.11718,-0.634765 -0.14534,-0.152 -0.34634,-0.218829 -0.625,-0.298828 z m 23.82227,0.0078 -0.84375,0.253906 0.0957,1.169922 c 0.004,0.044 0.0364,0.259818 0.0937,0.646485 -0.16267,-0.349334 -0.24562,-0.546745 -0.26562,-0.580079 l -0.56055,-1.046875 -0.85938,0.257813 0.78125,2.607422 0.57422,-0.171875 -0.65039,-2 1.01172,1.890625 0.46484,-0.138672 -0.18945,-2.142578 0.55078,2.03125 0.57813,-0.169922 z m -23.3418,0.605469 c 0.0227,0.0053 0.0398,0.01162 0.0625,0.01563 0.21467,0.06 0.29757,0.204765 0.24024,0.384765 -0.0653,0.214667 -0.20541,0.275745 -0.44141,0.205078 -0.0147,-0.004 -0.0231,-0.01296 -0.0391,-0.01562 z m 20.2793,0.25 -0.6211,0.130859 0.33594,1.669922 c 10e-4,0.0093 0.004,0.02049 0.004,0.03516 0.0733,0.337334 0.10839,0.527026 -0.0996,0.56836 -0.22,0.04267 -0.26118,-0.146912 -0.33985,-0.517579 l -0.33593,-1.671874 -0.62696,0.125 0.28907,1.441406 c 0.092,0.44 0.1595,0.752073 0.32617,0.941406 0.18,0.205333 0.42286,0.256833 0.76953,0.1875 0.37467,-0.08 0.58911,-0.229953 0.67578,-0.501953 0.0613,-0.209333 0.02,-0.426505 -0.0293,-0.701172 -0.016,-0.06533 -0.029,-0.135125 -0.041,-0.203125 z m -16.52344,0.173828 c -0.22819,0.0028 -0.4185,0.08137 -0.5625,0.234375 -0.172,0.18 -0.24908,0.518104 -0.34375,1.023437 -0.088,0.510667 -0.1363,0.857318 -0.043,1.083985 0.112,0.265333 0.33036,0.424901 0.67969,0.490234 0.59867,0.101333 0.93797,-0.160594 1.05664,-0.808594 0.004,-0.048 0.0142,-0.088 0.0195,-0.138671 l -0.61523,-0.111329 c -0.012,0.04267 -0.0174,0.08571 -0.0254,0.123047 -0.06,0.333334 -0.13051,0.466401 -0.33985,0.427735 -0.26266,-0.044 -0.21232,-0.321839 -0.0976,-0.951172 0.003,-0.008 0.002,-0.03097 0.0117,-0.04297 0.10667,-0.594667 0.16197,-0.847542 0.41797,-0.796875 0.192,0.032 0.22797,0.191063 0.16797,0.539063 l 0.60938,0.111328 v -0.02539 c 0.124,-0.648 -0.11132,-1.028719 -0.69532,-1.136719 -0.0843,-0.016 -0.16417,-0.02242 -0.24023,-0.02148 z m 1.85156,0.357422 -0.32031,2.705078 0.62695,0.07422 0.12891,-1.083985 0.12695,0.0098 c 0.23867,0.032 0.286,0.16137 0.25,0.470703 -0.012,0.07333 -0.0277,0.16001 -0.041,0.277344 -0.0187,0.137333 -0.0181,0.258906 0.002,0.378906 l 0.74219,0.08594 c -0.15467,-0.154666 -0.10231,-0.388947 -0.0703,-0.738281 0.0253,-0.314666 0.0438,-0.492156 -0.24024,-0.660156 0.252,-0.106667 0.38002,-0.301281 0.41602,-0.613281 0.0307,-0.246667 -0.0188,-0.442558 -0.16016,-0.587891 -0.152,-0.145333 -0.38414,-0.193042 -0.74414,-0.234375 z m 11.625,0.01172 -0.63086,0.08984 0.3711,2.691406 1.39062,-0.185546 -0.0762,-0.544922 -0.75976,0.105468 z m -17.54687,0.25 c 0.012,0.0027 0.0282,0.0025 0.0469,0.0078 0.26667,0.088 0.36426,0.219359 0.29493,0.443359 -0.072,0.234667 -0.23415,0.312948 -0.49415,0.238282 -0.0173,-0.004 -0.0368,-0.0076 -0.0488,-0.01563 z m 8.37109,0.0039 -0.0859,1.464843 c -0.0227,0.445334 -0.039,0.764902 0.0703,0.990235 0.12666,0.248 0.34126,0.357575 0.69726,0.378905 0.38134,0.024 0.6313,-0.0692 0.7793,-0.310546 0.11067,-0.181333 0.13377,-0.40688 0.14844,-0.685547 0.008,-0.064 0.0117,-0.135744 0.0117,-0.205078 l 0.0918,-1.53125 -0.63672,-0.03516 -0.0976,1.699219 c 0,0.01333 -10e-4,0.02911 -0.004,0.03711 -0.0227,0.348 -0.0369,0.536771 -0.24219,0.523438 -0.22266,-0.01733 -0.21993,-0.209938 -0.19726,-0.585938 l 0.0996,-1.701172 z m 6.47852,0.0332 -1.48047,0.07813 0.14062,2.718753 1.48243,-0.0742 -0.0254,-0.554689 -0.85157,0.04492 -0.0312,-0.595703 0.78125,-0.03906 -0.0273,-0.548828 -0.7793,0.04492 -0.0254,-0.503907 0.8457,-0.04102 z m -3.13086,0.0332 c -0.34667,-0.004 -0.59472,0.114229 -0.74805,0.351563 -0.136,0.206666 -0.15625,0.557598 -0.15625,1.072265 0,0.512 0.0164,0.86436 0.14844,1.068359 0.15333,0.239996 0.40252,0.356706 0.75586,0.359376 0.60533,0 0.88734,-0.321803 0.88867,-0.980469 0,-0.044 -6.2e-4,-0.09067 -0.002,-0.138672 l -0.625,-0.002 v 0.123047 c 0,0.337333 -0.0471,0.488281 -0.26172,0.488281 -0.26667,-0.0013 -0.26501,-0.284636 -0.26367,-0.917969 v -0.05273 c 0.007,-0.6 0.0121,-0.859375 0.27343,-0.859375 0.19734,0 0.25906,0.154573 0.26172,0.503906 h 0.61719 v -0.02539 c 0.003,-0.657333 -0.29401,-0.988901 -0.88867,-0.990234 z m -5.22656,0.205078 c 0.0293,0.0093 0.0554,0.0044 0.0781,0.0098 0.26133,0.02933 0.35293,0.126041 0.32227,0.359375 -0.0267,0.252 -0.14173,0.334021 -0.40039,0.304687 -0.0213,-0.004 -0.0494,-0.0091 -0.0801,-0.01172 z"
           style="fill:#ffffff;fill-opacity:1;fill-rule:nonzero;stroke:none;stroke-width:1.33333325"
           inkscape:connector-curvature="0" />
      </g>
      <g
         transform="matrix(0.35277777,0,0,-0.35277777,-192.20017,25.123022)"
         id="g1091" />
      <g
         transform="matrix(0.35277777,0,0,-0.35277777,-191.75571,25.910951)"
         id="g1095" />
      <g
         transform="matrix(0.35277777,0,0,-0.35277777,-190.41212,26.06769)"
         id="g1099" />
      <g
         transform="matrix(0.35277777,0,0,-0.35277777,-190.00611,25.980801)"
         id="g1103" />
      <g
         transform="matrix(0.35277777,0,0,-0.35277777,-189.31967,25.743981)"
         id="g1107" />
      <g
         transform="matrix(0.35277777,0,0,-0.35277777,-188.3671,26.209754)"
         id="g1111" />
      <g
         transform="matrix(0.35277777,0,0,-0.35277777,-188.16535,25.763172)"
         id="g1115" />
      <g
         transform="matrix(0.35277777,0,0,-0.35277777,-187.1285,26.402759)"
         id="g1119" />
      <g
         transform="matrix(0.35277777,0,0,-0.35277777,-186.53336,25.579657)"
         id="g1123" />
      <g
         transform="matrix(0.35277777,0,0,-0.35277777,-186.06272,25.48222)"
         id="g1127" />
      <g
         transform="matrix(0.35277777,0,0,-0.35277777,-185.26495,25.22695)"
         id="g1131" />
      <g
         transform="matrix(0.35277777,0,0,-0.35277777,-184.74421,24.99962)"
         id="g1135" />
      <g
         transform="matrix(0.35277777,0,0,-0.35277777,-188.73879,21.502252)"
         id="g1139">
        <path
           inkscape:connector-curvature="0"
           id="path1141"
           style="fill:#ffffff;fill-opacity:1;fill-rule:nonzero;stroke:none"
           d="M 0,0 -0.005,0.005 C -0.623,0.692 -1.281,0.925 -1.9,0.925 L -2.546,0.865 C -3.242,0.789 -4.198,0.692 -4.657,0.692 H -5.612 V 9.427 H -6.138 V 0.091 h 1.481 c 0.431,0 1.407,0.101 2.057,0.169 l 0.7,0.066 c 0.589,0 1.251,0.09 1.9,-0.375 L 0,0" />
      </g>
      <g
         transform="matrix(0.35277777,0,0,-0.35277777,-186.60628,18.176757)"
         id="g1143">
        <path
           inkscape:connector-curvature="0"
           id="path1145"
           style="fill:#ffffff;fill-opacity:1;fill-rule:nonzero;stroke:none"
           d="m 0,0 v -8.735 h -0.949 c -0.464,0 -1.417,0.098 -2.117,0.173 l -0.644,0.061 c -0.623,0 -1.281,-0.234 -1.893,-0.92 L -5.63,-9.452 v -0.044 c 0.646,0.487 1.325,0.396 1.92,0.396 l 0.7,-0.066 c 0.65,-0.069 1.628,-0.169 2.061,-0.169 H 0.526 V 0 H 0" />
      </g>
      <g
         transform="matrix(0.35277777,0,0,-0.35277777,-189.40899,20.979859)"
         id="g1147">
        <path
           inkscape:connector-curvature="0"
           id="path1149"
           style="fill:#ffffff;fill-opacity:1;fill-rule:nonzero;stroke:none"
           d="M 0,0 -0.701,-0.064 C -1.349,-0.13 -2.326,-0.23 -2.758,-0.23 h -0.399 v 8.925 c 0.615,-0.223 1.28,-0.412 2.574,-0.412 2.06,0 2.437,-0.633 2.443,-0.643 L 1.9,7.575 V -0.611 C 1.251,-0.104 0.589,0 0,0" />
      </g>
      <g
         transform="matrix(0.35277777,0,0,-0.35277777,-186.80306,21.061033)"
         id="g1151">
        <path
           inkscape:connector-curvature="0"
           id="path1153"
           style="fill:#ffffff;fill-opacity:1;fill-rule:nonzero;stroke:none"
           d="m 0,0 h -0.392 c -0.432,0 -1.41,0.1 -2.06,0.165 l -0.7,0.065 c -0.594,0 -1.271,-0.107 -1.92,-0.631 V 7.8 l 0.039,0.069 c 0.005,0.006 0.398,0.644 2.465,0.644 1.29,0 1.956,0.189 2.568,0.412 L 0,0" />
      </g>
      <g
         transform="matrix(0.35277777,0,0,-0.35277777,-189.55977,18.95823)"
         id="g1155">
        <path
           id="path1157"
           transform="matrix(0.75000002,0,0,-0.75000002,537.33479,53.739866)"
           d="m -719.28516,68.845703 v 1.345703 c 0.628,0.189334 1.41697,0.34961 2.79297,0.34961 0.932,0 1.70974,0.09635 2.31641,0.291015 v -0.382812 c -0.62533,-0.177334 -1.39507,-0.275391 -2.31641,-0.275391 -0.96533,0 -1.63491,-0.0826 -2.15625,-0.197266 v -0.953124 c -0.20933,-0.04 -0.40205,-0.08307 -0.63672,-0.177735 z m 8.08399,0.40625 c -0.14134,0.02267 -0.25057,0.05199 -0.36524,0.08398 -0.10133,0.024 -0.21216,0.0598 -0.29882,0.0918 v 1.4375 c 0.60266,-0.178666 1.35895,-0.273437 2.26562,-0.273437 1.388,0 2.18202,-0.163563 2.80469,-0.351563 v -0.392578 c -0.60934,0.196 -1.39002,0.367188 -2.80469,0.367188 -0.59733,0 -1.12823,0.04776 -1.60156,0.121094 z m -8.08789,2.169922 v 0.378906 c 0.73066,0.161334 1.68632,0.23999 2.84765,0.222657 l 0.6875,0.01562 c 0.64934,0.03733 1.16446,0.130152 1.56446,0.271485 v -0.386719 c -0.41334,-0.136 -0.91897,-0.219146 -1.54297,-0.257812 l -0.71485,-0.01367 c -1.176,0.01467 -2.12713,-0.06514 -2.84179,-0.230469 z m 12.49414,0.03906 c -0.71334,0.174666 -1.6658,0.257567 -2.8418,0.240234 l -0.7168,0.01367 c -0.60133,0.03067 -1.09838,0.118187 -1.51171,0.242187 v 0.390625 c 0.404,-0.14 0.9012,-0.227578 1.5332,-0.267578 l 0.69141,-0.0098 c 1.16133,0.01733 2.11503,-0.05999 2.8457,-0.222656 z m -12.49414,1.572265 v 0.375 c 0.824,0.122667 1.99924,0.123609 2.89258,0.09961 h 0.61914 c 0.68533,0.03467 1.17865,0.12249 1.58398,0.285157 v -0.394531 c -0.41467,-0.149334 -0.91431,-0.228292 -1.57031,-0.265626 h -0.64649 c -1.244,0.03733 -2.24957,-0.0023 -2.8789,-0.09961 z m 12.49609,0.05078 c -0.62933,0.09467 -1.63552,0.12761 -2.88086,0.09961 h -0.64844 c -0.636,0.028 -1.12901,0.111239 -1.54101,0.253906 v 0.392578 c 0.40667,-0.157333 0.88979,-0.24463 1.56445,-0.279297 h 0.61719 c 0.88667,0.02667 2.06734,0.02306 2.88867,-0.09961 z m -9.00391,1.535157 -0.57031,0.0059 c -0.996,0.04667 -2.19921,0.08682 -2.92187,0.02148 v 0.373047 c 0.752,0.064 1.94416,0.02066 2.9375,-0.02734 l 0.54297,-0.0078 c 0.504,0.02133 1.08261,0.0734 1.61328,0.302734 v -0.40039 c -0.53867,-0.204 -1.0989,-0.254245 -1.60157,-0.267578 z m 5.50586,0.04297 c -0.48666,0.01467 -1.04426,0.07301 -1.57226,0.263672 v 0.396485 c 0.51733,-0.218667 1.0918,-0.269776 1.5918,-0.28711 l 0.54296,0.0098 c 0.992,0.044 2.17884,0.08734 2.9375,0.02734 v -0.373047 c -0.72933,0.06267 -1.92392,0.0179 -2.91992,-0.02344 z m -5.53906,1.492188 -0.5039,0.02539 -0.32032,0.02148 c -0.84266,0.05867 -1.96143,0.14038 -2.63476,0.123047 v 0.373047 c 0.69866,0.01467 1.81891,-0.06633 2.65625,-0.125 l 0.32617,-0.02344 0.47266,-0.01953 c 0.52933,0.008 1.09638,0.05997 1.62304,0.306641 l 0.002,-0.404297 c -0.54667,-0.216 -1.11443,-0.262677 -1.6211,-0.277344 z m 5.57227,0.05273 c -0.49467,0.008 -1.05809,0.0522 -1.60742,0.269531 V 76.8789 c 0.54133,-0.241333 1.1178,-0.291974 1.61914,-0.30664 l 0.46679,0.02344 c 0.001,0 0.32813,0.02539 0.32813,0.02539 0.84266,0.05333 1.96487,0.137713 2.6582,0.123047 V 76.37109 c -0.67333,0.01333 -1.78552,-0.05976 -2.63086,-0.121094 l -0.32422,-0.02344 c -0.003,0 -0.50976,-0.01953 -0.50976,-0.01953 z m -5.60157,1.488281 -0.91796,0.08594 c -0.75867,0.076 -1.85972,0.194036 -2.51172,0.220703 v 0.371094 c 0.66666,-0.028 1.77878,-0.142037 2.55078,-0.220703 l 0.8789,-0.08594 c 0.49467,0 1.07458,0.04503 1.64258,0.31836 l 0.002,-0.404297 c -0.59334,-0.246667 -1.1792,-0.285156 -1.64454,-0.285157 z m 5.64063,0.04688 c -0.46933,0 -1.05386,0.03778 -1.64453,0.287109 v 0.398437 c 0.56667,-0.270666 1.15253,-0.3125 1.64453,-0.3125 l 0.86719,0.08008 c 0.77333,0.08 1.88597,0.197323 2.55664,0.222657 v -0.373047 c -0.652,-0.02133 -1.75501,-0.137417 -2.51367,-0.21875 z"
           style="fill:#000000;fill-opacity:1;fill-rule:nonzero;stroke:none;stroke-width:1.33333325"
           inkscape:connector-curvature="0" />
      </g>
      <g
         transform="matrix(0.35277777,0,0,-0.35277777,-189.55028,19.349602)"
         id="g1159" />
      <g
         transform="matrix(0.35277777,0,0,-0.35277777,-189.53892,19.744784)"
         id="g1163" />
      <g
         transform="matrix(0.35277777,0,0,-0.35277777,-189.52996,20.155664)"
         id="g1167" />
      <g
         transform="matrix(0.35277777,0,0,-0.35277777,-189.40465,20.557055)"
         id="g1171" />
      <g
         transform="matrix(0.35277777,0,0,-0.35277777,-189.57166,18.566577)"
         id="g1175" />
      <g
         transform="matrix(0.35277777,0,0,-0.35277777,-187.74815,18.677243)"
         id="g1179" />
      <g
         transform="matrix(0.35277777,0,0,-0.35277777,-187.75813,18.970683)"
         id="g1183" />
      <g
         transform="matrix(0.35277777,0,0,-0.35277777,-187.76762,19.363149)"
         id="g1187" />
      <g
         transform="matrix(0.35277777,0,0,-0.35277777,-187.77761,19.757766)"
         id="g1191" />
      <g
         transform="matrix(0.35277777,0,0,-0.35277777,-187.70151,20.174608)"
         id="g1195" />
      <g
         transform="matrix(0.35277777,0,0,-0.35277777,-187.67107,20.591733)"
         id="g1199" />
      <g
         transform="matrix(0.35277777,0,0,-0.35277777,-189.40899,21.58452)"
         id="g1203">
        <path
           inkscape:connector-curvature="0"
           id="path1205"
           style="fill:#ffffff;fill-opacity:1;fill-rule:nonzero;stroke:none"
           d="m 0,0 -0.646,-0.064 c -0.696,-0.07 -1.652,-0.168 -2.112,-0.168 h -2.035 v 8.88 h -0.529 v -9.39 h 2.564 c 0.432,0 1.409,0.103 2.057,0.17 L 0,-0.509 c 0.46,0 0.98,0.136 1.492,-0.025 l 0.017,0.041 C 1.008,-0.107 0.491,0 0,0" />
      </g>
      <g
         transform="matrix(0.35277777,0,0,-0.35277777,-186.22454,18.533521)"
         id="g1207">
        <path
           inkscape:connector-curvature="0"
           id="path1209"
           style="fill:#ffffff;fill-opacity:1;fill-rule:nonzero;stroke:none"
           d="m 0,0 v -8.881 h -2.032 c -0.463,0 -1.416,0.098 -2.116,0.169 l -0.644,0.064 c -0.516,0 -1.055,-0.117 -1.573,-0.547 l 0.004,-0.014 c 0.536,0.204 1.08,0.051 1.569,0.051 l 0.7,-0.062 c 0.65,-0.068 1.628,-0.171 2.06,-0.171 h 2.56 L 0.528,0 H 0" />
      </g>
      <g
         transform="matrix(0.35277777,0,0,-0.35277777,-187.9063,16.318641)"
         id="g1211">
        <path
           id="path1213"
           transform="matrix(0.75000002,0,0,-0.75000002,532.64779,46.257566)"
           d="m -712.9375,51.416016 -0.77539,1.033203 -1.32227,-0.05664 0.35938,1.214844 -0.86328,0.96289 1.20703,0.517579 0.21484,1.240234 1.17969,-0.599609 1.13477,0.613281 0.23046,-1.269531 1.23438,-0.47461 -0.875,-0.976562 0.37305,-1.228516 -1.32227,0.07031 z m 7.11133,3.207031 -0.77735,1.033203 -1.32226,-0.05469 0.35742,1.212891 -0.85937,0.964844 1.20507,0.515625 0.2168,1.242187 1.17969,-0.599609 1.13476,0.613281 0.23047,-1.269531 1.23633,-0.474609 -0.87695,-0.976563 0.37304,-1.228516 -1.32226,0.07031 z m -13.3711,2.978515 -0.98632,0.962891 h -1.35743 l -0.004,1.320313 -0.95703,0.929687 0.95703,0.943359 0.004,1.31836 h 1.35743 l 0.98632,0.964844 0.99024,-0.964844 h 1.40625 v -1.351563 l 0.91992,-0.902343 -0.91992,-0.90625 v -1.351563 h -1.40625 z m 6.30665,1.97461 -0.6211,0.861328 -1.03906,0.314453 0.65039,0.835938 -0.0234,1.052734 1.03321,-0.361328 1.01171,0.351562 -0.0254,-1.042968 0.67383,-0.835938 -1.04687,-0.304687 z m 4.45703,1.222656 -0.52149,0.878906 -1.24219,-0.002 0.60547,1.041016 -0.60547,1.041015 h 1.24219 l 0.52149,0.876954 0.51171,-0.876954 h 1.24219 l -0.60547,-1.041015 0.60547,-1.041016 -1.24219,0.002 z"
           style="fill:#ffffff;fill-opacity:1;fill-rule:nonzero;stroke:none;stroke-width:1.33333325"
           inkscape:connector-curvature="0" />
      </g>
      <g
         transform="matrix(0.35277777,0,0,-0.35277777,-186.74993,14.452588)"
         id="g1215" />
      <g
         transform="matrix(0.35277777,0,0,-0.35277777,-188.6313,13.604052)"
         id="g1219" />
      <g
         transform="matrix(0.35277777,0,0,-0.35277777,-188.61881,15.762664)"
         id="g1223" />
      <g
         transform="matrix(0.35277777,0,0,-0.35277777,-189.41009,16.092334)"
         id="g1227" />
      <g
         transform="matrix(0.35277777,0,0,-0.35277777,-185.64884,20.982293)"
         id="g1231">
        <path
           inkscape:connector-curvature="0"
           id="path1233"
           style="fill:#ed1c2e;fill-opacity:1;fill-rule:nonzero;stroke:none"
           d="M 0,0 V 3.851 H 0.243 V 5.013 H 0 v 1.346 h -0.55 v -9.365 l -7.057,0.004 c -0.039,-0.019 -0.073,-0.039 -0.109,-0.055 -0.046,-0.469 -0.414,-0.835 -0.863,-0.835 -0.468,0 -0.839,0.388 -0.865,0.872 -0.015,0.009 -0.025,0.014 -0.03,0.018 l -7.06,-0.004 v 9.365 h -0.531 V 5.013 h -0.214 V 3.851 h 0.214 V 0 h -0.214 v -1.163 h 0.214 v -2.344 h 7.1 c 0.238,-0.549 0.785,-0.931 1.42,-0.931 0.637,0 1.182,0.382 1.426,0.931 H 0 v 2.344 H 0.243 V 0 H 0" />
      </g>
      <g
         transform="matrix(0.35277777,0,0,-0.35277777,-193.17726,17.535019)"
         id="g1235">
        <path
           inkscape:connector-curvature="0"
           id="path1237"
           style="fill:#b38808;fill-opacity:1;fill-rule:nonzero;stroke:none"
           d="m 0,0 c 0.06,-9.353 4.377,-15.953 12.822,-19.62 v 5.412 c -0.008,0 -0.018,-0.002 -0.026,-0.002 -0.636,0 -1.183,0.382 -1.421,0.931 h -7.1 v 2.344 H 4.061 v 1.163 h 0.214 v 3.851 H 4.061 v 1.162 h 0.214 v 1.346 h 0.532 l 10e-4,1.138 h 1.081 v 1.011 H 6.97 v 0.995 l 0.495,-0.185 c 0.675,-0.251 1.259,-0.47 2.634,-0.47 1.625,0 2.363,-0.38 2.692,-0.66 0.009,0.007 0.022,0.016 0.031,0.024 V 0 H 0" />
      </g>
    </g>
  </g>
</svg>
