<?xml version="1.0" encoding="UTF-8" standalone="no"?>
<!-- Created with Inkscape (http://www.inkscape.org/) -->

<svg
   width="212.26352mm"
   height="52.688721mm"
   viewBox="0 0 212.26352 52.688721"
   version="1.1"
   id="svg5"
   inkscape:version="1.1 (c68e22c387, 2021-05-23)"
   sodipodi:docname="ileakage.svg"
   xmlns:inkscape="http://www.inkscape.org/namespaces/inkscape"
   xmlns:sodipodi="http://sodipodi.sourceforge.net/DTD/sodipodi-0.dtd"
   xmlns="http://www.w3.org/2000/svg"
   xmlns:svg="http://www.w3.org/2000/svg">
  <sodipodi:namedview
     id="namedview7"
     pagecolor="#ffffff"
     bordercolor="#666666"
     borderopacity="1.0"
     inkscape:pageshadow="2"
     inkscape:pageopacity="0.0"
     inkscape:pagecheckerboard="0"
     inkscape:document-units="mm"
     showgrid="false"
     inkscape:zoom="1.0381216"
     inkscape:cx="423.36081"
     inkscape:cy="-34.196379"
     inkscape:window-width="1920"
     inkscape:window-height="1009"
     inkscape:window-x="1912"
     inkscape:window-y="-8"
     inkscape:window-maximized="1"
     inkscape:current-layer="layer1"
     fit-margin-top="0"
     fit-margin-left="0"
     fit-margin-right="0"
     fit-margin-bottom="0" />
  <defs
     id="defs2" />
  <g
     inkscape:label="Layer 1"
     inkscape:groupmode="layer"
     id="layer1"
     transform="translate(-17.913005,-5.9235417)">
    <text
       xml:space="preserve"
       style="font-size:45.8611px;line-height:1.25;font-family:'Myriad Pro';-inkscape-font-specification:'Myriad Pro';stroke-width:0.264583"
       x="53.795132"
       y="49.027294"
       id="text6279"><tspan
         sodipodi:role="line"
         id="tspan6277"
         style="font-style:normal;font-variant:normal;font-weight:600;font-stretch:normal;font-size:45.8611px;font-family:'Myriad Pro';-inkscape-font-specification:'Myriad Pro Semi-Bold';stroke-width:0.264583"
         x="53.795132"
         y="49.027294">iLeakage</tspan></text>
    <path
       d="m 45.011522,26.790653 c -0.194428,0.15085 -8.124914,1.006862 -8.005114,9.160675 0.141497,9.630604 6.853657,8.645536 6.984392,8.689115 -1.214061,3.176616 -2.443783,4.090196 -5.623348,4.197663 -2.279499,0 -2.866136,-1.324121 -5.497616,-1.324121 -2.564437,0 -3.476236,1.3677 -5.561307,1.3677 -2.085073,0 -3.53993,-1.910757 -5.21268,-4.257302 0,0 6.66526,1.880946 7.305525,-8.632078 0.512407,-8.413628 -9.032886,-8.818287 -9.032886,-8.818287 0,0 4.138444,-3.621595 6.631637,-3.621595 2.215807,0 4.062874,1.454858 5.454037,1.454858 1.324122,0 3.38908,-1.542015 5.909938,-1.542015 0.955378,0 4.388035,0.08716 6.647422,3.325387 z m -7.844159,-6.084251 c 1.042535,-1.236965 1.780022,-2.953293 1.780022,-4.669622 0,-0.238009 -0.02012,-0.479361 -0.06369,-0.673793 -1.696217,0.06369 -3.714244,1.129693 -4.931094,2.540972 -0.955379,1.086113 -1.847064,2.802443 -1.847064,4.542236 0,0.261473 0.04357,0.522945 0.06369,0.60675 0.107266,0.02012 0.281586,0.04357 0.4559,0.04357 1.521901,0 3.436009,-1.01907 4.542237,-2.390122 z"
       id="path15012"
       style="stroke-width:0.033522"
       sodipodi:nodetypes="csccsscscsssccsccscscc" />
  </g>
</svg>
