<?xml version="1.0" encoding="UTF-8" standalone="no"?>
<!-- Created with Inkscape (http://www.inkscape.org/) -->

<svg
   width="90mm"
   height="104.96294mm"
   viewBox="0 0 90.000001 104.96295"
   version="1.1"
   id="svg5"
   inkscape:version="1.2.1 (0f2f062aeb, 2022-09-21, custom)"
   sodipodi:docname="ileakage-logo-only.svg"
   inkscape:export-filename="../59e14c73/ileakage.png"
   inkscape:export-xdpi="96"
   inkscape:export-ydpi="96"
   xmlns:inkscape="http://www.inkscape.org/namespaces/inkscape"
   xmlns:sodipodi="http://sodipodi.sourceforge.net/DTD/sodipodi-0.dtd"
   xmlns:xlink="http://www.w3.org/1999/xlink"
   xmlns="http://www.w3.org/2000/svg"
   xmlns:svg="http://www.w3.org/2000/svg">
  <sodipodi:namedview
     id="namedview7"
     pagecolor="#ffffff"
     bordercolor="#666666"
     borderopacity="1.0"
     inkscape:pageshadow="2"
     inkscape:pageopacity="0.0"
     inkscape:pagecheckerboard="0"
     inkscape:document-units="mm"
     showgrid="false"
     inkscape:zoom="1.0381216"
     inkscape:cx="142.56519"
     inkscape:cy="291.87332"
     inkscape:window-width="1504"
     inkscape:window-height="1273"
     inkscape:window-x="26"
     inkscape:window-y="23"
     inkscape:window-maximized="0"
     inkscape:current-layer="layer1"
     fit-margin-top="0"
     fit-margin-left="0"
     fit-margin-right="0"
     fit-margin-bottom="0"
     inkscape:showpageshadow="2"
     inkscape:deskcolor="#d1d1d1"
     showguides="false" />
  <defs
     id="defs2">
    <linearGradient
       id="linearGradient13174">
      <stop
         offset="0"
         stop-color="#06c2e7"
         id="stop13164"
         style="stop-color:#0eb5ed;stop-opacity:1;" />
      <stop
         offset="0.25000015"
         stop-color="#0db8ec"
         id="stop13166" />
      <stop
         offset="0.5000003"
         stop-color="#12aef1"
         id="stop13168" />
      <stop
         offset="0.75000012"
         stop-color="#1f86f9"
         id="stop13170" />
      <stop
         offset="1"
         stop-color="#107ddd"
         id="stop13172" />
    </linearGradient>
    <linearGradient
       id="linearGradient3616">
      <stop
         offset="0"
         stop-color="#06c2e7"
         id="stop3606" />
      <stop
         offset="0.25000015"
         stop-color="#0db8ec"
         id="stop3608" />
      <stop
         offset="0.5000003"
         stop-color="#12aef1"
         id="stop3610" />
      <stop
         offset="0.75000012"
         stop-color="#1f86f9"
         id="stop3612" />
      <stop
         offset="1"
         stop-color="#107ddd"
         id="stop3614" />
    </linearGradient>
    <linearGradient
       inkscape:collect="always"
       id="linearGradient3594">
      <stop
         style="stop-color:#06c0e5;stop-opacity:1;"
         offset="0"
         id="stop3590" />
      <stop
         style="stop-color:#000000;stop-opacity:0;"
         offset="1"
         id="stop3592" />
    </linearGradient>
    <linearGradient
       id="linearGradient935">
      <stop
         offset="1"
         stop-color="#bdbdbd"
         id="stop931"
         style="stop-color:#ffffff;stop-opacity:1;" />
      <stop
         offset="1"
         stop-color="#fff"
         id="stop933"
         style="stop-color:#ffffff;stop-opacity:1;" />
    </linearGradient>
    <filter
       id="f"
       width="1.0429894"
       height="1.0445137"
       x="-0.021494724"
       y="-0.022256861"
       color-interpolation-filters="sRGB">
      <feGaussianBlur
         stdDeviation=".95767362"
         id="feGaussianBlur646" />
    </filter>
    <radialGradient
       xlink:href="#b"
       id="e"
       cx="413.06128"
       cy="136.81819"
       r="82.125351"
       fx="413.06128"
       fy="136.81819"
       gradientTransform="matrix(0.08813586,0,0,0.08813586,-0.7495251,22.755175)"
       gradientUnits="userSpaceOnUse" />
    <linearGradient
       id="b">
      <stop
         offset="0"
         stop-color="#06c2e7"
         id="stop629" />
      <stop
         offset=".25000015"
         stop-color="#0db8ec"
         id="stop631" />
      <stop
         offset=".5000003"
         stop-color="#12aef1"
         id="stop633" />
      <stop
         offset=".75000012"
         stop-color="#1f86f9"
         id="stop635" />
      <stop
         offset="1"
         stop-color="#107ddd"
         id="stop637" />
    </linearGradient>
    <linearGradient
       xlink:href="#a"
       id="d"
       x1="412.97501"
       x2="412.97501"
       y1="237.60777"
       y2="59.392235"
       gradientTransform="matrix(0.08122927,0,0,0.08122927,2.0799929,23.723847)"
       gradientUnits="userSpaceOnUse" />
    <linearGradient
       id="a">
      <stop
         offset="0"
         stop-color="#bdbdbd"
         id="stop640" />
      <stop
         offset="1"
         stop-color="#fff"
         id="stop642" />
    </linearGradient>
    <filter
       id="c"
       width="1.096"
       height="1.096"
       x="-0.048000004"
       y="-0.048"
       color-interpolation-filters="sRGB">
      <feGaussianBlur
         stdDeviation="3.5643107"
         id="feGaussianBlur649" />
    </filter>
    <filter
       id="c-3"
       width="1.1016112"
       height="1.1016112"
       x="-0.050805594"
       y="-0.050805593"
       color-interpolation-filters="sRGB">
      <feGaussianBlur
         stdDeviation="3.5643107"
         id="feGaussianBlur649-6" />
    </filter>
    <radialGradient
       xlink:href="#b"
       id="e-3"
       cx="413.06128"
       cy="136.81819"
       r="82.125351"
       fx="413.06128"
       fy="136.81819"
       gradientTransform="matrix(0.09044484,0,0,0.09044484,-3.9612115,24.53166)"
       gradientUnits="userSpaceOnUse" />
    <filter
       id="f-2"
       width="1.0505992"
       height="1.0525909"
       x="-0.025441735"
       y="-0.02644333"
       color-interpolation-filters="sRGB">
      <feGaussianBlur
         stdDeviation=".95767362"
         id="feGaussianBlur646-7" />
    </filter>
    <linearGradient
       inkscape:collect="always"
       xlink:href="#linearGradient935"
       id="linearGradient468"
       gradientUnits="userSpaceOnUse"
       gradientTransform="matrix(0.08335731,0,0,0.08335731,-1.0605524,25.556883)"
       x1="412.97501"
       y1="237.60777"
       x2="412.97501"
       y2="59.392235" />
    <linearGradient
       inkscape:collect="always"
       xlink:href="#linearGradient3594"
       id="linearGradient3596"
       x1="52.549999"
       y1="286.40051"
       x2="520.25"
       y2="286.40051"
       gradientUnits="userSpaceOnUse" />
    <linearGradient
       inkscape:collect="always"
       xlink:href="#linearGradient13174"
       id="linearGradient13024"
       x1="54.431725"
       y1="1.3843888"
       x2="52.483047"
       y2="570.49396"
       gradientUnits="userSpaceOnUse"
       spreadMethod="pad" />
  </defs>
  <g
     inkscape:label="Layer 1"
     inkscape:groupmode="layer"
     id="layer1"
     transform="translate(9.8982649,53.267122)">
    <g
       id="g413"
       transform="matrix(2.9301627,0,0,2.9301627,-60.954924,-108.22468)">
      <g
         transform="matrix(0.00240016,0,0,-0.00240016,17.419113,48.73238)"
         fill="#000000"
         stroke="none"
         id="g901">
        <path
           d="m 6560,12471 c -119,-38 -255,-125 -587,-374 -226,-169 -307,-218 -423,-255 -116,-37 -182,-46 -330,-45 -236,1 -438,44 -866,184 -133,43 -281,85 -329,94 -99,17 -306,20 -410,5 -313,-45 -576,-215 -689,-444 -72,-147 -83,-258 -46,-482 62,-381 235,-649 465,-718 123,-37 203,-29 640,65 678,147 780,162 1075,163 236,0 306,-8 480,-55 130,-35 256,-128 340,-250 43,-63 77,-89 115,-89 h 25 v -430 -430 h -32 c -48,0 -177,-69 -328,-176 -347,-246 -381,-265 -522,-303 -140,-37 -245,-45 -412,-32 -140,11 -159,7 -203,-41 -66,-72 -86,-259 -51,-486 10,-66 14,-75 42,-90 42,-22 108,-39 189,-47 l 67,-7 v -58 c 0,-31 -5,-115 -10,-186 -16,-197 -19,-189 122,-325 l 121,-117 -17,-503 c -12,-353 -22,-522 -32,-564 -8,-33 -35,-100 -59,-148 -106,-212 -264,-379 -558,-590 l -98,-70 -137,-8 c -138,-9 -261,-1 -344,21 -52,15 -101,48 -198,135 -133,119 -200,156 -313,170 -46,5 -61,3 -70,-8 -10,-12 -303,-34 -1572,-118 C 747,5803 44,5756 42,5755 40,5753 34,5326 9,3397 3,2919 1,2526 3,2523 c 3,-2 88,-13 189,-23 183,-19 2480,-253 2848,-290 107,-11 214,-22 238,-25 l 42,-6 v 35 c 0,31 7,41 58,81 161,128 288,191 487,243 185,48 304,65 465,66 130,0 159,-3 285,-33 481,-113 1308,-288 1417,-300 290,-32 648,3 1258,124 686,136 1209,221 1603,260 229,23 480,17 592,-14 350,-98 536,-322 609,-737 9,-49 25,-161 36,-249 11,-88 27,-198 35,-245 22,-123 28,-348 17,-645 -14,-394 0,-538 57,-589 26,-23 204,-77 362,-110 646,-132 1267,-62 2007,226 187,73 183,67 190,253 13,342 -72,1376 -164,2000 -65,440 -145,739 -283,1058 -108,251 -207,404 -356,552 -624,619 -1704,1084 -3019,1300 -128,21 -204,46 -290,97 -152,90 -268,252 -345,483 -77,232 -76,223 -76,764 l -1,484 151,132 c 82,72 155,138 161,146 18,22 35,150 42,324 l 7,159 77,11 c 121,17 148,45 169,176 21,137 -6,411 -47,476 -33,53 -110,66 -320,53 l -139,-9 -206,69 c -336,112 -420,163 -593,364 -100,116 -198,206 -224,206 -9,0 -12,113 -12,440 v 440 h 30 c 42,0 72,22 113,83 85,129 206,219 346,257 162,45 248,55 481,54 299,-1 387,-15 1100,-168 355,-76 461,-91 541,-77 283,49 480,329 544,772 28,197 17,295 -49,434 -101,214 -292,356 -576,431 -76,20 -128,27 -260,31 -214,7 -283,-5 -582,-103 -268,-86 -489,-146 -633,-170 -121,-20 -366,-23 -450,-5 -197,41 -275,83 -575,306 -277,206 -375,272 -475,320 -120,58 -222,69 -325,36 z"
           id="path899" />
      </g>
      <g
         id="g979"
         transform="matrix(0.00825451,0,0,0.00825451,42.659605,49.849155)"
         style="fill:url(#linearGradient3596);fill-opacity:1">
        <path
           d="m 520.25,353.6 c 0,125 -100.5,219.201 -233.8,219.201 -133.3,0 -233.9,-94.201 -233.9,-219.201 0,-115.3 164.7,-301.5 197.7,-337.7 9.3,-10.2 22.4,-15.9 36.2,-15.9 13.8,0 26.9,5.8 36.2,15.9 32.9,36.2 197.6,222.5 197.6,337.7 z"
           id="path977"
           style="fill:url(#linearGradient13024);fill-opacity:1;fill-rule:nonzero" />
      </g>
      <path
         d="M 502.08277,148.5 A 89.107765,89.107765 0 0 1 412.975,237.60777 89.107765,89.107765 0 0 1 323.86724,148.5 89.107765,89.107765 0 0 1 412.975,59.392235 89.107765,89.107765 0 0 1 502.08277,148.5 Z"
         filter="url(#c)"
         opacity="0.53"
         paint-order="markers stroke fill"
         transform="matrix(0.08030083,0,0,0.07732497,0.20530943,27.030018)"
         id="path655-9"
         style="stroke:#000000;stroke-opacity:0;filter:url(#c-3)" />
      <path
         fill="url(#d)"
         stroke="#cdcdcd"
         stroke-linecap="round"
         stroke-linejoin="round"
         stroke-width="0.0220551"
         d="m 40.792046,37.935541 a 7.4278422,7.4278422 0 0 1 -7.427843,7.427843 7.4278422,7.4278422 0 0 1 -7.42784,-7.427843 7.4278422,7.4278422 0 0 1 7.42784,-7.427843 7.4278422,7.4278422 0 0 1 7.427843,7.427843 z"
         paint-order="markers stroke fill"
         id="path657-3"
         style="fill:url(#linearGradient468);stroke:#000000;stroke-width:1;stroke-dasharray:none;stroke-opacity:1" />
      <path
         fill="url(#e)"
         d="m 40.212992,37.904367 c 0,3.780831 -3.06497,6.845802 -6.845802,6.845802 -3.780832,0 -6.845802,-3.06497 -6.845802,-6.845802 0,-2.716464 0.86214,-0.589797 2.640977,-2.077258 1.862838,-1.557703 3.140457,0.777453 4.204825,0.777453 1.336134,0 2.799593,-1.996742 4.650213,-0.454312 2.122642,1.769152 2.195589,-0.690581 2.195589,1.754117 z"
         paint-order="markers stroke fill"
         id="path659-6"
         style="fill:url(#e-3);stroke:#000000;stroke-width:0.23712;stroke-opacity:0"
         sodipodi:nodetypes="sssssss" />
      <path
         fill="#f4f2f3"
         d="m 33.367189,31.415569 c -0.05529,0 -0.09981,0.04452 -0.09981,0.09981 v 1.15126 c 0,0.05529 0.04452,0.09981 0.09981,0.09981 0.0553,0 0.09981,-0.04452 0.09981,-0.09981 v -1.15126 c 0,-0.0553 -0.04452,-0.09981 -0.09981,-0.09981 z m -0.652951,0.04127 c -0.0067,-7.11e-4 -0.01342,-7.11e-4 -0.0203,8.3e-5 -0.05499,0.0057 -0.09465,0.05464 -0.08891,0.109631 l 0.05031,0.481636 c 0.0057,0.05499 0.05463,0.09466 0.109628,0.08891 0.055,-0.0057 0.09466,-0.05463 0.08891,-0.109629 l -0.05027,-0.481635 c -0.005,-0.04812 -0.0431,-0.0845 -0.08938,-0.08899 z m 1.31047,4.74e-4 c -0.04628,0.0044 -0.08436,0.04083 -0.08942,0.08895 l -0.05065,0.481597 c -0.0057,0.05499 0.03387,0.103932 0.08887,0.109716 0.05499,0.0057 0.103885,-0.03383 0.109671,-0.08883 l 0.05065,-0.481637 c 0.0057,-0.05499 -0.03388,-0.103891 -0.08887,-0.109673 -0.0069,-7.11e-4 -0.01364,-7.11e-4 -0.02025,-1.23e-4 z m -1.981212,0.09679 c -0.0067,5.2e-5 -0.0134,7.11e-4 -0.02015,0.0022 -0.0541,0.01145 -0.08843,0.06423 -0.07698,0.118331 l 0.23843,1.126277 c 0.01145,0.05409 0.06423,0.08843 0.118328,0.07697 0.0541,-0.01145 0.08843,-0.06419 0.07699,-0.11829 l -0.238438,-1.126338 c -0.01006,-0.04734 -0.05167,-0.07954 -0.09817,-0.07917 z m 2.651913,9.48e-4 c -0.0465,-4.74e-4 -0.08816,0.03176 -0.09822,0.07909 l -0.239248,1.126145 c -0.0115,0.05409 0.02281,0.106883 0.07689,0.118375 0.05409,0.0115 0.106884,-0.02281 0.118372,-0.07689 l 0.239248,-1.126147 c 0.0115,-0.05409 -0.02281,-0.106883 -0.07689,-0.118373 -0.0068,-0.0014 -0.01351,-0.0022 -0.02015,-0.0022 z m -3.292031,0.179541 c -0.01292,-0.0012 -0.02627,2.37e-4 -0.03942,0.0046 -0.05259,0.0171 -0.08118,0.07315 -0.0641,0.12574 l 0.149647,0.460573 c 0.0171,0.05259 0.0732,0.08118 0.125783,0.0641 0.05259,-0.0171 0.08114,-0.0732 0.06405,-0.125783 l -0.149644,-0.460573 c -0.01281,-0.03945 -0.04757,-0.06537 -0.08633,-0.06866 z m 3.928528,2.37e-4 c -0.03876,0.0033 -0.07351,0.02923 -0.08632,0.06866 l -0.149734,0.460531 c -0.0171,0.05258 0.01147,0.108688 0.06406,0.125783 0.05259,0.0171 0.108689,-0.01147 0.125785,-0.06406 l 0.149733,-0.460574 c 0.0171,-0.05259 -0.01147,-0.108688 -0.06406,-0.125783 -0.01313,-0.0043 -0.02654,-0.0056 -0.03946,-0.0046 z m -4.561535,0.231405 c -0.01297,2.37e-4 -0.0261,0.0031 -0.03873,0.0087 -0.0505,0.02245 -0.07312,0.0812 -0.05065,0.131728 l 0.467594,1.052013 c 0.02245,0.05053 0.0812,0.07312 0.131727,0.05066 0.0505,-0.02245 0.07316,-0.0812 0.0507,-0.131727 l -0.467639,-1.052041 c -0.01684,-0.0379 -0.0541,-0.06012 -0.093,-0.05936 z m 5.201694,0.0035 c -0.03889,-7.11e-4 -0.0762,0.02137 -0.09309,0.05923 l -0.469019,1.051368 c -0.02253,0.0505 -1e-5,0.109284 0.05049,0.131813 0.0505,0.02253 0.109283,1.3e-5 0.131815,-0.05049 l 0.469014,-1.051365 c 0.02253,-0.0505 1.3e-5,-0.109286 -0.05049,-0.131815 -0.01261,-0.0056 -0.02576,-0.0084 -0.03873,-0.0087 z m -5.789258,0.307352 c -0.01916,-0.0014 -0.0389,0.0029 -0.05686,0.01323 -0.04789,0.02764 -0.06418,0.08845 -0.03653,0.136337 l 0.242136,0.419392 c 0.02765,0.04789 0.08845,0.06418 0.136335,0.03653 0.04788,-0.02765 0.06418,-0.08845 0.03653,-0.136337 l -0.242135,-0.419391 c -0.01728,-0.02993 -0.04753,-0.04752 -0.07948,-0.04975 z m 6.368763,0 c -0.03193,0.0022 -0.06216,0.01983 -0.07943,0.04975 l -0.242178,0.419391 c -0.02765,0.04789 -0.01131,0.108688 0.03657,0.136336 0.04789,0.02765 0.108689,0.01136 0.136337,-0.03653 l 0.242133,-0.419393 c 0.02765,-0.04788 0.01136,-0.108689 -0.03653,-0.136338 -0.01795,-0.01036 -0.03774,-0.01456 -0.0569,-0.01323 z m -6.939308,0.355854 c -0.01921,7.11e-4 -0.03844,0.0069 -0.05523,0.01904 -0.04475,0.03247 -0.05466,0.09464 -0.02217,0.139397 l 0.675998,0.931871 c 0.03247,0.04476 0.09468,0.05466 0.139438,0.0222 0.04476,-0.03247 0.05466,-0.09464 0.02218,-0.139396 l -0.67604,-0.931829 c -0.0203,-0.02797 -0.05217,-0.04232 -0.08417,-0.04122 z m 7.517007,0.005 c -0.032,-0.0012 -0.06388,0.01316 -0.08422,0.0411 l -0.677286,0.930968 c -0.03253,0.04471 -0.02272,0.106908 0.022,0.139439 0.04471,0.03253 0.106911,0.02274 0.139441,-0.02196 l 0.677247,-0.930968 c 0.03253,-0.04472 0.02269,-0.106908 -0.022,-0.139439 -0.01677,-0.01219 -0.03599,-0.01845 -0.05518,-0.01914 z m -8.026991,0.422621 c -0.02548,-0.0014 -0.05147,0.0071 -0.07202,0.02558 -0.0411,0.037 -0.0444,0.09985 -0.0074,0.140946 l 0.32402,0.359948 c 0.037,0.0411 0.09985,0.0444 0.140948,0.0074 0.0411,-0.03699 0.0444,-0.09989 0.0074,-0.140989 l -0.323978,-0.359803 c -0.01849,-0.02055 -0.04348,-0.03166 -0.06897,-0.033 z m 8.530555,7.12e-4 c -0.02548,0.0014 -0.05047,0.01245 -0.06896,0.03299 l -0.32402,0.359861 c -0.037,0.04109 -0.03373,0.103989 0.0074,0.14099 0.04109,0.03699 0.103947,0.03368 0.140947,-0.0074 l 0.32405,-0.359824 c 0.03701,-0.0411 0.03368,-0.103992 -0.0074,-0.140989 -0.02056,-0.01849 -0.0465,-0.02693 -0.07199,-0.02558 z m -9.019341,0.468799 c -0.02548,0.0014 -0.05043,0.01245 -0.06892,0.033 -0.037,0.0411 -0.03369,0.103951 0.0074,0.140946 l 0.855627,0.77033 c 0.0411,0.03699 0.103951,0.03369 0.140944,-0.0074 0.03699,-0.0411 0.03373,-0.10395 -0.0074,-0.140947 l -0.855665,-0.770256 c -0.02056,-0.01849 -0.04655,-0.02693 -0.07203,-0.02558 z m 9.5105,0.0034 c -0.02548,-0.0014 -0.0515,0.0071 -0.07207,0.02554 l -0.856145,0.769647 c -0.04112,0.03696 -0.04451,0.09982 -0.0075,0.140944 0.03696,0.04112 0.09987,0.04447 0.140989,0.0075 l 0.856188,-0.769646 c 0.04112,-0.03696 0.04445,-0.09983 0.0075,-0.140947 -0.01849,-0.02056 -0.04345,-0.03168 -0.06892,-0.03303 z m -9.91697,0.519289 c -0.032,-0.0012 -0.0639,0.01323 -0.08421,0.04118 -0.0325,0.04473 -0.02265,0.106894 0.0221,0.139396 l 0.39178,0.284649 c 0.04473,0.0325 0.106892,0.02269 0.139393,-0.02205 0.0325,-0.04473 0.02267,-0.106936 -0.02205,-0.139439 l -0.391779,-0.284649 c -0.01677,-0.01219 -0.03603,-0.0184 -0.05522,-0.01909 z m 10.323051,0.0036 c -0.01921,7.12e-4 -0.03844,0.0069 -0.05522,0.01904 L 38.0829,34.35979 c -0.04475,0.03247 -0.05466,0.09468 -0.0222,0.139438 0.03247,0.04475 0.09464,0.05461 0.139396,0.02215 l 0.391998,-0.28439 c 0.04475,-0.03247 0.05461,-0.09464 0.02214,-0.139397 -0.0203,-0.02797 -0.05217,-0.04232 -0.08417,-0.04122 z m -10.702899,0.553982 c -0.03194,0.0022 -0.06216,0.01983 -0.07944,0.04975 -0.02764,0.04788 -0.01136,0.108689 0.03653,0.136338 l 0.997004,0.575628 c 0.04788,0.02765 0.108688,0.01136 0.136337,-0.03653 0.02765,-0.04788 0.01136,-0.108689 -0.03653,-0.136337 l -0.997004,-0.575631 c -0.01795,-0.01037 -0.03774,-0.01456 -0.0569,-0.01323 z m 11.080031,0 c -0.01916,-0.0014 -0.03894,0.0029 -0.0569,0.01323 l -0.997004,0.575631 c -0.04788,0.02765 -0.06418,0.08845 -0.03653,0.136338 0.02765,0.04788 0.08845,0.06418 0.136337,0.03653 l 0.997049,-0.575628 c 0.04788,-0.02765 0.06418,-0.08845 0.03652,-0.136337 -0.01729,-0.02992 -0.04753,-0.04752 -0.07948,-0.04975 z m -11.367221,0.594238 c -0.03889,-9.49e-4 -0.0762,0.02131 -0.09309,0.05919 -0.02252,0.0505 -1.4e-5,0.109291 0.05049,0.131815 l 0.442306,0.197288 c 0.0505,0.02253 0.109291,1.7e-5 0.131815,-0.05048 0.02252,-0.0505 -2.9e-5,-0.109291 -0.05053,-0.131815 L 27.578709,35.21328 c -0.01261,-0.0056 -0.02577,-0.0084 -0.03873,-0.0087 z m 11.656352,0.0041 c -0.01297,2.37e-4 -0.02614,0.0031 -0.03877,0.0087 l -0.442393,0.196945 c -0.05052,0.0225 -0.07311,0.08125 -0.05061,0.13177 0.0225,0.05052 0.0813,0.07311 0.131815,0.05061 l 0.442395,-0.19699 c 0.05051,-0.02248 0.07306,-0.08125 0.05057,-0.13177 -0.01686,-0.03789 -0.05411,-0.06004 -0.093,-0.05927 z m -11.912312,0.616983 c -0.03877,0.0033 -0.07353,0.02914 -0.08636,0.06858 -0.01712,0.05257 0.01138,0.108693 0.06397,0.125825 l 0.720734,0.234845 0.373883,0.121827 c 0.05257,0.01712 0.108694,-0.0114 0.125825,-0.06396 0.01712,-0.05257 -0.01138,-0.108696 -0.06396,-0.125825 l -1.094613,-0.356683 c -0.01314,-0.0043 -0.02654,-0.0056 -0.03946,-0.0046 z m 12.167797,0.0043 c -0.01292,-0.0012 -0.02627,2.38e-4 -0.03942,0.0046 l -1.09487,0.355899 c -0.05259,0.0171 -0.08115,0.0732 -0.06406,0.125782 0.0171,0.05258 0.0732,0.08115 0.125783,0.06406 l 1.094831,-0.355899 c 0.05259,-0.0171 0.08119,-0.0732 0.0641,-0.125783 -0.01283,-0.03944 -0.04761,-0.06538 -0.08637,-0.06866 z m -12.327265,0.6477 c -0.0465,-4.74e-4 -0.0882,0.0318 -0.09826,0.07913 -0.0115,0.05409 0.02281,0.106877 0.07689,0.118375 l 0.473711,0.10067 c 0.05409,0.0115 0.106875,-0.02281 0.118373,-0.07689 0.0115,-0.05409 -0.02281,-0.10688 -0.07689,-0.118375 l -0.473669,-0.10067 c -0.0068,-0.0014 -0.01351,-0.0022 -0.02015,-0.0022 z m 12.485486,9.48e-4 c -0.0067,5.4e-5 -0.01335,9.48e-4 -0.02011,0.0022 l -0.473714,0.100629 c -0.05409,0.0115 -0.08838,0.06424 -0.07689,0.118332 0.0115,0.05409 0.06428,0.08842 0.118373,0.07693 l 0.47367,-0.100629 c 0.05409,-0.0115 0.08842,-0.06429 0.07693,-0.118375 -0.01006,-0.04733 -0.05176,-0.07952 -0.09826,-0.07913 z m -12.606187,0.654807 c -0.04628,0.0044 -0.08439,0.04075 -0.08946,0.08887 -0.0058,0.05498 0.03375,0.103949 0.08874,0.109758 l 1.144886,0.121046 c 0.05499,0.0058 0.103949,-0.03379 0.109758,-0.08878 0.0058,-0.05498 -0.03379,-0.103949 -0.08878,-0.109758 l -1.144883,-0.121052 c -0.0069,-7.11e-4 -0.01364,-7.11e-4 -0.02025,-8.3e-5 z m 12.727747,0.0086 c -0.0066,-7.12e-4 -0.01342,-7.12e-4 -0.0203,8.3e-5 l -1.145014,0.119494 c -0.05499,0.0057 -0.09465,0.05464 -0.08891,0.109628 0.0057,0.05499 0.05463,0.09466 0.109631,0.08891 l 1.145014,-0.119495 c 0.05499,-0.0057 0.09465,-0.05464 0.08891,-0.109629 -0.005,-0.04812 -0.04306,-0.0845 -0.08934,-0.08899 z M 26.98447,37.804741 c -0.05529,0 -0.09981,0.04452 -0.09981,0.09981 0,0.05529 0.04451,0.09981 0.09981,0.09981 h 0.484266 c 0.05529,0 0.09985,-0.04452 0.09985,-0.09981 0,-0.0553 -0.04456,-0.09981 -0.09985,-0.09981 z m 12.281174,0 c -0.05529,0 -0.09981,0.04452 -0.09981,0.09981 2e-6,0.05529 0.04452,0.09981 0.09981,0.09981 h 0.484266 c 0.05529,0 0.09981,-0.04452 0.09981,-0.09981 0,-0.0553 -0.04452,-0.09981 -0.09981,-0.09981 z m -11.097993,0.544086 c -0.0067,-7.13e-4 -0.01337,-7.13e-4 -0.02025,8.3e-5 l -1.145059,0.119493 c -0.05499,0.0057 -0.09465,0.05463 -0.08891,0.109629 0.0057,0.05499 0.05464,0.09466 0.109628,0.08891 l 1.145059,-0.119494 c 0.05499,-0.0057 0.09465,-0.05464 0.08891,-0.109631 -0.005,-0.04812 -0.0431,-0.0845 -0.08938,-0.08899 z m 10.398476,0.0071 c -0.04629,0.0044 -0.08438,0.04075 -0.08947,0.08887 -0.0059,0.05498 0.03375,0.103949 0.08873,0.109758 l 1.144886,0.121045 c 0.05499,0.0059 0.103947,-0.03379 0.109758,-0.08878 0.0058,-0.05498 -0.03379,-0.103949 -0.08878,-0.109758 L 38.586415,38.356 c -0.0069,-7.11e-4 -0.01368,-7.11e-4 -0.0203,-8.3e-5 z m -10.969239,0.674261 c -0.0067,5.7e-5 -0.0134,7.12e-4 -0.02015,0.0022 l -0.473713,0.100629 c -0.05409,0.0115 -0.08838,0.06428 -0.07689,0.118375 0.0115,0.05409 0.06428,0.08838 0.118375,0.07689 l 0.473713,-0.100588 c 0.05409,-0.0115 0.08838,-0.06429 0.07689,-0.118373 -0.01006,-0.04733 -0.05172,-0.07952 -0.09822,-0.07913 z m 11.540473,9.49e-4 c -0.0465,-4.74e-4 -0.08815,0.03176 -0.09822,0.07909 -0.0115,0.05409 0.02276,0.106881 0.07685,0.118376 l 0.473712,0.10067 c 0.05408,0.0115 0.106878,-0.02276 0.118373,-0.07685 0.0115,-0.05409 -0.02281,-0.106923 -0.07689,-0.118418 l -0.473671,-0.10067 c -0.0068,-0.0014 -0.01351,-0.0022 -0.02015,-0.0022 z m -10.742785,0.393115 c -0.01292,-0.0012 -0.02626,2.37e-4 -0.03942,0.0046 l -1.094871,0.355896 c -0.05259,0.0171 -0.08115,0.0732 -0.06405,0.125784 0.0171,0.05259 0.0732,0.08115 0.125783,0.06405 l 1.09483,-0.355899 c 0.05259,-0.0171 0.08119,-0.0732 0.0641,-0.125783 -0.01283,-0.03944 -0.0476,-0.06537 -0.08638,-0.06866 z m 9.94415,0.0035 c -0.03877,0.0033 -0.07352,0.02914 -0.08637,0.06858 -0.01712,0.05258 0.01138,0.108696 0.06397,0.125828 l 1.094614,0.356672 c 0.05257,0.01712 0.108695,-0.0114 0.125826,-0.06397 0.01715,-0.05257 -0.01138,-0.108696 -0.06397,-0.125827 l -1.094615,-0.356672 c -0.01313,-0.0043 -0.02654,-0.0056 -0.03946,-0.0046 z m -10.361947,0.776022 c -0.01297,2.37e-4 -0.0261,0.0031 -0.03873,0.0086 l -0.442436,0.196988 c -0.05052,0.02248 -0.07307,0.08125 -0.05057,0.13177 0.0225,0.05052 0.08125,0.07306 0.13177,0.05057 l 0.442441,-0.196947 c 0.05051,-0.02248 0.07306,-0.08125 0.05057,-0.13177 -0.01686,-0.03789 -0.05415,-0.06004 -0.09305,-0.05927 z m 10.779228,0.0038 c -0.03889,-9.48e-4 -0.07619,0.02131 -0.09309,0.05919 -0.02252,0.0505 -1.4e-5,0.109289 0.05049,0.131813 l 0.442265,0.197289 c 0.0505,0.02253 0.109291,1.4e-5 0.131815,-0.05049 0.02253,-0.0505 1.4e-5,-0.109289 -0.05049,-0.131813 l -0.442266,-0.197292 c -0.01261,-0.0056 -0.02576,-0.0084 -0.03873,-0.0087 z m -9.91783,0.216288 c -0.01916,-0.0014 -0.03894,0.0029 -0.0569,0.01323 l -0.997004,0.57563 c -0.04788,0.02765 -0.06418,0.08845 -0.03653,0.136336 0.02765,0.04788 0.08845,0.06418 0.136338,0.03653 l 0.997004,-0.575586 c 0.04788,-0.02765 0.06418,-0.08849 0.03653,-0.13638 -0.01729,-0.02993 -0.04749,-0.04752 -0.07943,-0.04975 z m 9.058067,0 c -0.03194,0.0022 -0.0622,0.01983 -0.07948,0.04975 -0.02764,0.04788 -0.01136,0.108732 0.03653,0.13638 l 0.997004,0.575586 c 0.04789,0.02764 0.108731,0.01136 0.136379,-0.03653 0.02765,-0.04788 0.01136,-0.10869 -0.03652,-0.136338 L 37.95311,40.437044 c -0.01795,-0.01036 -0.0377,-0.01456 -0.05686,-0.01323 z m -9.306746,0.844727 c -0.01921,7.11e-4 -0.03844,0.0069 -0.05523,0.01909 l -0.39195,0.28439 c -0.04475,0.03247 -0.05466,0.09464 -0.0222,0.139396 0.03248,0.04475 0.09464,0.05466 0.139396,0.02218 l 0.391993,-0.28439 c 0.04476,-0.03247 0.05466,-0.09464 0.0222,-0.139394 -0.0203,-0.02797 -0.05222,-0.04236 -0.08422,-0.04127 z m 9.553015,0.0034 c -0.032,-0.0012 -0.0639,0.01323 -0.08421,0.04118 -0.0325,0.04473 -0.02265,0.106936 0.0221,0.139437 l 0.39178,0.284649 c 0.04473,0.0325 0.106894,0.02265 0.139395,-0.0221 0.0325,-0.04473 0.02267,-0.106894 -0.02205,-0.139396 L 38.197751,41.29106 c -0.01677,-0.01219 -0.03603,-0.01845 -0.05522,-0.01914 z m -8.665299,0.03446 c -0.02547,-0.0014 -0.05146,0.0071 -0.07202,0.02554 l -0.856185,0.769646 c -0.04112,0.03696 -0.04446,0.09983 -0.0075,0.140947 0.03696,0.04112 0.09982,0.04446 0.140944,0.0075 l 0.856188,-0.769645 c 0.04112,-0.03696 0.04447,-0.09982 0.0075,-0.140947 -0.01847,-0.02055 -0.04345,-0.03168 -0.06892,-0.03304 z m 7.77758,0.0028 c -0.02548,0.0014 -0.05047,0.01245 -0.06896,0.03299 -0.03699,0.0411 -0.03369,0.103952 0.0074,0.140947 l 0.855627,0.770248 c 0.0411,0.037 0.103994,0.03369 0.14099,-0.0074 0.03699,-0.0411 0.03369,-0.103952 -0.0074,-0.140946 l -0.855673,-0.77025 c -0.02055,-0.01849 -0.04651,-0.02693 -0.07198,-0.02558 z m -6.965327,0.73118 c -0.032,-0.0012 -0.06393,0.01314 -0.08426,0.04109 l -0.677247,0.93093 c -0.03253,0.04472 -0.02274,0.10691 0.02196,0.139439 0.04471,0.03253 0.10691,0.02274 0.139438,-0.02198 l 0.677247,-0.930968 c 0.03253,-0.04471 0.02274,-0.106908 -0.02196,-0.139439 -0.01677,-0.01219 -0.03598,-0.01845 -0.05518,-0.01911 z m 6.149891,0.0042 c -0.01921,7.11e-4 -0.03844,0.0069 -0.05523,0.01904 -0.04475,0.03247 -0.05465,0.09464 -0.0222,0.139396 l 0.675997,0.931871 c 0.03247,0.04476 0.09464,0.05466 0.139396,0.0222 0.04476,-0.03247 0.05465,-0.09464 0.0222,-0.139394 l -0.675998,-0.931874 c -0.0203,-0.02797 -0.05217,-0.04232 -0.08417,-0.04122 z m -7.024171,0.14379 c -0.02548,0.0014 -0.05047,0.01245 -0.06896,0.03299 l -0.324023,0.359861 c -0.037,0.04109 -0.03373,0.103988 0.0074,0.140989 0.04109,0.03701 0.103947,0.03368 0.140944,-0.0074 l 0.324063,-0.359857 c 0.03701,-0.04109 0.03368,-0.103992 -0.0074,-0.14099 -0.02055,-0.01849 -0.0465,-0.02693 -0.07199,-0.02558 z m 7.903404,4.74e-4 c -0.02548,-0.0014 -0.05143,0.0071 -0.07198,0.02558 -0.0411,0.03699 -0.0444,0.09985 -0.0074,0.140944 l 0.323978,0.359947 c 0.03699,0.0411 0.09985,0.0444 0.140949,0.0074 0.0411,-0.03699 0.0444,-0.09989 0.0074,-0.14099 l -0.32398,-0.359901 c -0.01849,-0.02055 -0.04348,-0.03166 -0.06896,-0.033 z m -6.083381,0.39923 c -0.03889,-9.49e-4 -0.07614,0.02131 -0.09305,0.05919 l -0.469063,1.051286 c -0.02252,0.0505 -1.2e-5,0.109286 0.05049,0.131815 0.0505,0.02253 0.109286,1.3e-5 0.131813,-0.05049 l 0.46906,-1.051368 c 0.02252,-0.0505 1.1e-5,-0.109287 -0.05049,-0.131813 -0.01261,-0.0056 -0.0258,-0.0084 -0.03877,-0.0087 z m 4.257629,0.0029 c -0.01297,2.37e-4 -0.02614,0.0031 -0.03877,0.0086 -0.0505,0.02245 -0.07312,0.0812 -0.05065,0.131728 l 0.467592,1.052013 c 0.02245,0.0505 0.08124,0.07312 0.13177,0.05065 0.0505,-0.02245 0.07312,-0.0812 0.05065,-0.131728 L 35.585838,42.6502 c -0.01684,-0.03788 -0.05411,-0.06006 -0.09301,-0.05931 z m -5.081855,0.322169 c -0.03194,0.0022 -0.06216,0.01983 -0.07943,0.04975 l -0.242135,0.419393 c -0.02765,0.04788 -0.01136,0.108688 0.03653,0.136337 0.04788,0.02765 0.108689,0.01136 0.136335,-0.03653 l 0.242135,-0.419392 c 0.02765,-0.04788 0.01136,-0.108689 -0.03653,-0.136338 -0.01795,-0.01036 -0.03774,-0.01456 -0.0569,-0.01323 z m 5.91241,0 c -0.01916,-0.0014 -0.0389,0.0029 -0.05686,0.01323 -0.04788,0.02765 -0.06418,0.08845 -0.03653,0.136338 l 0.242133,0.419393 c 0.02765,0.04788 0.08845,0.06418 0.136335,0.03653 0.04789,-0.02764 0.06418,-0.08845 0.03653,-0.136336 l -0.242133,-0.419393 c -0.01728,-0.02992 -0.04754,-0.04752 -0.07948,-0.04975 z m -4.04397,0.01503 c -0.0465,-4.74e-4 -0.08816,0.03176 -0.09822,0.07909 l -0.239247,1.126089 c -0.0115,0.05409 0.02281,0.106884 0.07689,0.118373 0.05409,0.0115 0.106884,-0.02281 0.118375,-0.07689 l 0.239245,-1.126147 c 0.0115,-0.05409 -0.02281,-0.106884 -0.07689,-0.118373 -0.0068,-0.0014 -0.01351,-0.0022 -0.02015,-0.0022 z m 2.171999,7.13e-4 c -0.0067,5.1e-5 -0.01335,7.11e-4 -0.0201,0.0022 -0.0541,0.01145 -0.08843,0.06419 -0.07699,0.118287 l 0.238432,1.126321 c 0.01145,0.05409 0.06423,0.08843 0.11833,0.07698 0.0541,-0.01145 0.08843,-0.06423 0.07698,-0.11833 l -0.238472,-1.126239 c -0.01006,-0.04734 -0.05168,-0.07954 -0.09818,-0.07918 z m -1.084234,0.113592 c -0.05529,0 -0.09981,0.04452 -0.09981,0.09981 v 1.151259 c 0,0.05529 0.04452,0.09981 0.09981,0.09981 0.0553,0 0.09981,-0.04452 0.09981,-0.09981 V 43.14228 c 0,-0.05529 -0.04452,-0.09981 -0.09981,-0.09981 z m -1.832126,0.372009 c -0.03876,0.0033 -0.07355,0.02923 -0.08637,0.06866 l -0.149692,0.460515 c -0.0171,0.05259 0.01147,0.108689 0.06406,0.125785 0.05258,0.0171 0.108686,-0.01152 0.125783,-0.0641 l 0.149689,-0.46053 c 0.0171,-0.05258 -0.01147,-0.108687 -0.06405,-0.125783 -0.01314,-0.0043 -0.0265,-0.0056 -0.03942,-0.0046 z m 3.663479,2.37e-4 c -0.01292,-0.0012 -0.02627,2.37e-4 -0.03942,0.0046 -0.05259,0.0171 -0.08118,0.0732 -0.0641,0.125786 l 0.149648,0.46057 c 0.0171,0.05259 0.0732,0.08114 0.125783,0.06406 0.05259,-0.0171 0.08118,-0.07315 0.0641,-0.12574 l -0.14969,-0.460573 c -0.01283,-0.03945 -0.04756,-0.06537 -0.08632,-0.06866 z m -2.457855,0.256518 c -0.04628,0.0044 -0.08441,0.04079 -0.08947,0.08891 l -0.05061,0.481637 c -0.0057,0.05499 0.03383,0.103887 0.08883,0.109673 0.05499,0.0057 0.103929,-0.03383 0.109715,-0.08883 l 0.05061,-0.481595 c 0.0057,-0.05499 -0.03383,-0.103929 -0.08882,-0.109714 -0.0069,-7.13e-4 -0.01364,-7.13e-4 -0.02025,-8.4e-5 z m 1.248999,4.76e-4 c -0.0066,-7.13e-4 -0.01342,-7.13e-4 -0.0203,8.2e-5 -0.05499,0.0057 -0.09465,0.05463 -0.08891,0.109628 l 0.05032,0.481681 c 0.0057,0.05499 0.05463,0.09462 0.10963,0.08887 0.05499,-0.0057 0.09466,-0.05463 0.08891,-0.109631 l -0.05027,-0.481637 c -0.005,-0.04813 -0.0431,-0.08451 -0.08939,-0.089 z"
         paint-order="markers stroke fill"
         id="path661-0"
         style="fill:#ffffff;fill-opacity:1;stroke:#000000;stroke-width:0.23712;stroke-opacity:0"
         sodipodi:nodetypes="ssssssscccccccccsccccccsscccccccccsccccccssccccccccccccscccccccccscccccccscccccccccscscccccsccscccccscccccsccscccsscccccccccccccccccccccccccccsccccccssssccsccssccsccccccccccccccccccsccccccsccsccccsccscccssccccccccccccccccccccsccsccccccccccsccsccccccsscccccccccsssssssssssssssccccccsscccccccccscccccsssscscsccsscccscccccccccccccccccscccccccccscccccccscccccccscsccccccscccccccscccccccsccsccssscsccccccccccsccccccccsscccccccccccccccccccccccccscccccccccscccccccsccscccccccccccccccccccccccsscccccssssscccccsccccccccccccccsccccccssccccccccc" />
      <path
         fill="#f4f2f3"
         d="m 33.373567,31.414525 c -0.05529,0 -0.09981,0.04452 -0.09981,0.09981 v 1.15126 c 0,0.05529 0.04452,0.09981 0.09981,0.09981 0.0553,0 0.09981,-0.04452 0.09981,-0.09981 v -1.15126 c 0,-0.0553 -0.04452,-0.09981 -0.09981,-0.09981 z m -0.652951,0.04127 c -0.0067,-7.11e-4 -0.01342,-7.11e-4 -0.0203,8.3e-5 -0.05499,0.0057 -0.09465,0.05464 -0.08891,0.109631 l 0.05031,0.481636 c 0.0057,0.05499 0.05463,0.09466 0.109628,0.08891 0.055,-0.0057 0.09466,-0.05463 0.08891,-0.109629 l -0.05027,-0.481635 c -0.005,-0.04812 -0.0431,-0.0845 -0.08938,-0.08899 z m 1.31047,4.74e-4 c -0.04628,0.0044 -0.08436,0.04083 -0.08942,0.08895 l -0.05065,0.481597 c -0.0057,0.05499 0.03387,0.103932 0.08887,0.109716 0.05499,0.0057 0.103885,-0.03383 0.109671,-0.08883 l 0.05065,-0.481637 c 0.0057,-0.05499 -0.03388,-0.103891 -0.08887,-0.109673 -0.0069,-7.11e-4 -0.01364,-7.11e-4 -0.02025,-1.23e-4 z m -1.981212,0.09679 c -0.0067,5.2e-5 -0.0134,7.11e-4 -0.02015,0.0022 -0.0541,0.01145 -0.08843,0.06423 -0.07698,0.118331 l 0.23843,1.126277 c 0.01145,0.05409 0.06423,0.08843 0.118328,0.07697 0.0541,-0.01145 0.08843,-0.06419 0.07699,-0.11829 l -0.238438,-1.126338 c -0.01006,-0.04734 -0.05167,-0.07954 -0.09817,-0.07917 z m 2.651913,9.48e-4 c -0.0465,-4.74e-4 -0.08816,0.03176 -0.09822,0.07909 l -0.239248,1.126145 c -0.0115,0.05409 0.02281,0.106883 0.07689,0.118375 0.05409,0.0115 0.106884,-0.02281 0.118372,-0.07689 l 0.239248,-1.126147 c 0.0115,-0.05409 -0.02281,-0.106883 -0.07689,-0.118373 -0.0068,-0.0014 -0.01351,-0.0022 -0.02015,-0.0022 z m -3.292031,0.179541 c -0.01292,-0.0012 -0.02627,2.37e-4 -0.03942,0.0046 -0.05259,0.0171 -0.08118,0.07315 -0.0641,0.12574 l 0.149647,0.460573 c 0.0171,0.05259 0.0732,0.08118 0.125783,0.0641 0.05259,-0.0171 0.08114,-0.0732 0.06405,-0.125783 l -0.149644,-0.460573 c -0.01281,-0.03945 -0.04757,-0.06537 -0.08633,-0.06866 z m 3.928528,2.37e-4 c -0.03876,0.0033 -0.07351,0.02923 -0.08632,0.06866 l -0.149734,0.460531 c -0.0171,0.05258 0.01147,0.108688 0.06406,0.125783 0.05259,0.0171 0.108689,-0.01147 0.125785,-0.06406 l 0.149733,-0.460574 c 0.0171,-0.05259 -0.01147,-0.108688 -0.06406,-0.125783 -0.01313,-0.0043 -0.02654,-0.0056 -0.03946,-0.0046 z m -4.561535,0.231405 c -0.01297,2.37e-4 -0.0261,0.0031 -0.03873,0.0087 -0.0505,0.02245 -0.07312,0.0812 -0.05065,0.131728 l 0.467594,1.052013 c 0.02245,0.05053 0.0812,0.07312 0.131727,0.05066 0.0505,-0.02245 0.07316,-0.0812 0.0507,-0.131727 l -0.467639,-1.052041 c -0.01684,-0.0379 -0.0541,-0.06012 -0.093,-0.05936 z m 5.201694,0.0035 c -0.03889,-7.11e-4 -0.0762,0.02137 -0.09309,0.05923 l -0.469019,1.051368 c -0.02253,0.0505 -10e-6,0.109284 0.05049,0.131813 0.0505,0.02253 0.109283,1.3e-5 0.131815,-0.05049 l 0.469014,-1.051365 c 0.02253,-0.0505 1.3e-5,-0.109286 -0.05049,-0.131815 -0.01261,-0.0056 -0.02576,-0.0084 -0.03873,-0.0087 z m -5.789258,0.307352 c -0.01916,-0.0014 -0.0389,0.0029 -0.05686,0.01323 -0.04789,0.02764 -0.06418,0.08845 -0.03653,0.136337 l 0.242136,0.419392 c 0.02765,0.04789 0.08845,0.06418 0.136335,0.03653 0.04788,-0.02765 0.06418,-0.08845 0.03653,-0.136337 l -0.242135,-0.419391 c -0.01728,-0.02993 -0.04753,-0.04752 -0.07948,-0.04975 z m 6.368763,0 c -0.03193,0.0022 -0.06216,0.01983 -0.07943,0.04975 l -0.242178,0.419391 c -0.02765,0.04789 -0.01131,0.108688 0.03657,0.136336 0.04789,0.02765 0.108689,0.01136 0.136337,-0.03653 l 0.242133,-0.419393 c 0.02765,-0.04788 0.01136,-0.108689 -0.03653,-0.136338 -0.01795,-0.01036 -0.03774,-0.01456 -0.0569,-0.01323 z m -6.939308,0.355854 c -0.01921,7.11e-4 -0.03844,0.0069 -0.05523,0.01904 -0.04475,0.03247 -0.05466,0.09464 -0.02217,0.139397 l 0.675998,0.931871 c 0.03247,0.04476 0.09468,0.05466 0.139438,0.0222 0.04476,-0.03247 0.05466,-0.09464 0.02218,-0.139396 l -0.67604,-0.931829 c -0.0203,-0.02797 -0.05217,-0.04232 -0.08417,-0.04122 z m 7.517007,0.005 c -0.032,-0.0012 -0.06388,0.01316 -0.08422,0.0411 l -0.677286,0.930968 c -0.03253,0.04471 -0.02272,0.106908 0.022,0.139439 0.04471,0.03253 0.106911,0.02274 0.139441,-0.02196 l 0.677247,-0.930968 c 0.03253,-0.04472 0.02269,-0.106908 -0.022,-0.139439 -0.01677,-0.01219 -0.03599,-0.01845 -0.05518,-0.01914 z m -8.026991,0.422621 c -0.02548,-0.0014 -0.05147,0.0071 -0.07202,0.02558 -0.0411,0.037 -0.0444,0.09985 -0.0074,0.140946 l 0.32402,0.359948 c 0.037,0.0411 0.09985,0.0444 0.140948,0.0074 0.0411,-0.03699 0.0444,-0.09989 0.0074,-0.140989 l -0.323978,-0.359803 c -0.01849,-0.02055 -0.04348,-0.03166 -0.06897,-0.033 z m 8.530555,7.12e-4 c -0.02548,0.0014 -0.05047,0.01245 -0.06896,0.03299 l -0.32402,0.359861 c -0.037,0.04109 -0.03373,0.103989 0.0074,0.14099 0.04109,0.03699 0.103947,0.03368 0.140947,-0.0074 l 0.32405,-0.359824 c 0.03701,-0.0411 0.03368,-0.103992 -0.0074,-0.140989 -0.02056,-0.01849 -0.0465,-0.02693 -0.07199,-0.02558 z m -9.019341,0.468799 c -0.02548,0.0014 -0.05043,0.01245 -0.06892,0.033 -0.037,0.0411 -0.03369,0.103951 0.0074,0.140946 l 0.855627,0.77033 c 0.0411,0.03699 0.103951,0.03369 0.140944,-0.0074 0.03699,-0.0411 0.03373,-0.10395 -0.0074,-0.140947 l -0.855665,-0.770256 c -0.02056,-0.01849 -0.04655,-0.02693 -0.07203,-0.02558 z m 9.5105,0.0034 c -0.02548,-0.0014 -0.0515,0.0071 -0.07207,0.02554 l -0.856145,0.769647 c -0.04112,0.03696 -0.04451,0.09982 -0.0075,0.140944 0.03696,0.04112 0.09987,0.04447 0.140989,0.0075 l 0.856188,-0.769646 c 0.04112,-0.03696 0.04445,-0.09983 0.0075,-0.140947 -0.01849,-0.02056 -0.04345,-0.03168 -0.06892,-0.03303 z m -9.91697,0.519289 c -0.032,-0.0012 -0.0639,0.01323 -0.08421,0.04118 -0.0325,0.04473 -0.02265,0.106894 0.0221,0.139396 l 0.39178,0.284649 c 0.04473,0.0325 0.106892,0.02269 0.139393,-0.02205 0.0325,-0.04473 0.02267,-0.106936 -0.02205,-0.139439 l -0.391779,-0.284649 c -0.01677,-0.01219 -0.03603,-0.0184 -0.05522,-0.01909 z m 10.323051,0.0036 c -0.01921,7.12e-4 -0.03844,0.0069 -0.05522,0.01904 l -0.391953,0.284389 c -0.04475,0.03247 -0.05466,0.09468 -0.0222,0.139438 0.03247,0.04475 0.09464,0.05461 0.139396,0.02215 l 0.391998,-0.28439 c 0.04475,-0.03247 0.05461,-0.09464 0.02214,-0.139397 -0.0203,-0.02797 -0.05217,-0.04232 -0.08417,-0.04122 z m -10.702899,0.553982 c -0.03194,0.0022 -0.06216,0.01983 -0.07944,0.04975 -0.02764,0.04788 -0.01136,0.108689 0.03653,0.136338 l 0.997004,0.575628 c 0.04788,0.02765 0.108688,0.01136 0.136337,-0.03653 0.02765,-0.04788 0.01136,-0.108689 -0.03653,-0.136337 l -0.997004,-0.575631 c -0.01795,-0.01037 -0.03774,-0.01456 -0.0569,-0.01323 z m 11.080031,0 c -0.01916,-0.0014 -0.03894,0.0029 -0.0569,0.01323 l -0.997004,0.575631 c -0.04788,0.02765 -0.06418,0.08845 -0.03653,0.136338 0.02765,0.04788 0.08845,0.06418 0.136337,0.03653 L 38.956535,34.7954 c 0.04788,-0.02765 0.06418,-0.08845 0.03652,-0.136337 -0.01729,-0.02992 -0.04753,-0.04752 -0.07948,-0.04975 z m -11.367221,0.594238 c -0.03889,-9.49e-4 -0.0762,0.02131 -0.09309,0.05919 -0.02252,0.0505 -1.4e-5,0.109291 0.05049,0.131815 l 0.442306,0.197288 c 0.0505,0.02253 0.109291,1.7e-5 0.131815,-0.05048 0.02252,-0.0505 -2.9e-5,-0.109291 -0.05053,-0.131815 l -0.442266,-0.197299 c -0.01261,-0.0056 -0.02577,-0.0084 -0.03873,-0.0087 z m 11.656352,0.0041 c -0.01297,2.37e-4 -0.02614,0.0031 -0.03877,0.0087 l -0.442393,0.196945 c -0.05052,0.0225 -0.07311,0.08125 -0.05061,0.13177 0.0225,0.05052 0.0813,0.07311 0.131815,0.05061 l 0.442395,-0.19699 c 0.05051,-0.02248 0.07306,-0.08125 0.05057,-0.13177 -0.01686,-0.03789 -0.05411,-0.06004 -0.093,-0.05927 z M 27.290402,35.82462 c -0.03877,0.0033 -0.07353,0.02914 -0.08636,0.06858 -0.01712,0.05257 0.01138,0.108693 0.06397,0.125825 l 0.720734,0.234845 0.373883,0.121827 c 0.05257,0.01712 0.108694,-0.0114 0.125825,-0.06396 0.01712,-0.05257 -0.01138,-0.108696 -0.06396,-0.125825 l -1.094613,-0.356683 c -0.01314,-0.0043 -0.02654,-0.0056 -0.03946,-0.0046 z m 12.167797,0.0043 c -0.01292,-0.0012 -0.02627,2.38e-4 -0.03942,0.0046 l -1.09487,0.355899 c -0.05259,0.0171 -0.08115,0.0732 -0.06406,0.125782 0.0171,0.05258 0.0732,0.08115 0.125783,0.06406 l 1.094831,-0.355899 c 0.05259,-0.0171 0.08119,-0.0732 0.0641,-0.125783 -0.01283,-0.03944 -0.04761,-0.06538 -0.08637,-0.06866 z m 0.158221,0.648648 c -0.0067,5.4e-5 -0.01335,9.48e-4 -0.02011,0.0022 l -0.473714,0.100629 c -0.05409,0.0115 -0.08838,0.06424 -0.07689,0.118332 0.0115,0.05409 0.06428,0.08842 0.118373,0.07693 l 0.47367,-0.100629 c 0.05409,-0.0115 0.08842,-0.06429 0.07693,-0.118375 -0.01006,-0.04733 -0.05176,-0.07952 -0.09826,-0.07913 z m -6.242853,7.914794 c -5.886008,-31.578545 -2.943004,-15.789272 0,0 z m -0.677752,-0.0419 c -5.434173,-31.550615 -2.717087,-15.775307 0,0 z m 1.350989,5.17e-4 c -6.334833,-31.550959 -3.167416,-15.77548 0,0 z"
         paint-order="markers stroke fill"
         id="path661-0-3"
         style="fill:#000000;fill-opacity:1;stroke:#000000;stroke-width:0.23712;stroke-opacity:0"
         sodipodi:nodetypes="sssssssccccccccccccccccscscccccccscccccccscccccccccccccscccccccccscccccccscccccccccscscccccsccsccsccsccccscccscccscccccccccccccccccccscccccccssccccccsscsccsccscccsccccccccccccccccccscccccssccscccscccscccsccccccccccccccccccccccccccscccccccc" />
      <path
         d="m 469.09621,100.6068 -65.50955,38.06124 -41.41979,65.20654 60.59382,-44.88117 z"
         filter="url(#f)"
         opacity="0.409"
         paint-order="markers stroke fill"
         transform="matrix(0.08335731,0,0,0.08335731,-1.0575657,25.525709)"
         id="path663-6"
         style="stroke:#000000;stroke-opacity:0;filter:url(#f-2)" />
      <path
         fill="#ff5150"
         d="m 34.149801,38.723942 -1.56522,-1.639148 5.55243,-3.735121 z"
         paint-order="markers stroke fill"
         id="path665-2"
         style="stroke:#000000;stroke-width:0.23712;stroke-opacity:0" />
      <path
         fill="#f1f1f1"
         d="m 34.149799,38.723941 -1.565221,-1.639148 -3.987209,5.374268 z"
         paint-order="markers stroke fill"
         id="path667-6"
         style="stroke:#000000;stroke-width:0.23712;stroke-opacity:0" />
      <path
         d="m 28.59737,42.459063 5.552429,-3.735124 3.987211,-5.374268 z"
         opacity="0.243"
         id="path669-1"
         style="stroke:#000000;stroke-width:0.23712;stroke-opacity:0" />
    </g>
  </g>
</svg>
