<?xml version="1.0" encoding="UTF-8" standalone="no"?>
<!-- Created with Inkscape (http://www.inkscape.org/) -->

<svg
   width="212.99388mm"
   height="48.219193mm"
   viewBox="0 0 212.99388 48.219193"
   version="1.1"
   id="svg5"
   inkscape:version="1.1 (c68e22c387, 2021-05-23)"
   sodipodi:docname="ileakage.svg"
   xmlns:inkscape="http://www.inkscape.org/namespaces/inkscape"
   xmlns:sodipodi="http://sodipodi.sourceforge.net/DTD/sodipodi-0.dtd"
   xmlns="http://www.w3.org/2000/svg"
   xmlns:svg="http://www.w3.org/2000/svg">
  <sodipodi:namedview
     id="namedview7"
     pagecolor="#ffffff"
     bordercolor="#666666"
     borderopacity="1.0"
     inkscape:pageshadow="2"
     inkscape:pageopacity="0.0"
     inkscape:pagecheckerboard="0"
     inkscape:document-units="mm"
     showgrid="false"
     inkscape:zoom="0.73406282"
     inkscape:cx="-131.46014"
     inkscape:cy="-119.88075"
     inkscape:window-width="1284"
     inkscape:window-height="1000"
     inkscape:window-x="2552"
     inkscape:window-y="101"
     inkscape:window-maximized="0"
     inkscape:current-layer="layer1"
     fit-margin-top="0"
     fit-margin-left="0"
     fit-margin-right="0"
     fit-margin-bottom="0" />
  <defs
     id="defs2" />
  <g
     inkscape:label="Layer 1"
     inkscape:groupmode="layer"
     id="layer1"
     transform="translate(-17.182646,-10.393073)">
    <text
       xml:space="preserve"
       style="font-size:45.8611px;line-height:1.25;font-family:'Myriad Pro';-inkscape-font-specification:'Myriad Pro';stroke-width:0.264583"
       x="53.795132"
       y="49.027294"
       id="text6279"><tspan
         sodipodi:role="line"
         id="tspan6277"
         style="font-style:normal;font-variant:normal;font-weight:600;font-stretch:normal;font-size:45.8611px;font-family:'Myriad Pro';-inkscape-font-specification:'Myriad Pro Semi-Bold';stroke-width:0.264583"
         x="53.795132"
         y="49.027294">iLeakage</tspan></text>
    <path
       d="m 46.041711,23.775831 c -0.227691,0.176658 -9.514957,1.17912 -9.374662,10.727921 0.165705,11.278247 8.026209,10.124649 8.179311,10.175684 -1.421768,3.720084 -2.861876,4.789963 -6.585414,4.915816 -2.669485,0 -3.356486,-1.550657 -6.43817,-1.550657 -3.003172,0 -4.070965,1.601692 -6.512758,1.601692 -2.441796,0 -4.145556,-2.237657 -6.104487,-4.985659 0,0 7.80558,2.202746 8.555384,-10.108889 0.600072,-9.853066 -10.578269,-10.326956 -10.578269,-10.326956 0,0 4.846466,-4.241192 7.766205,-4.241192 2.594896,0 4.757967,1.703761 6.387136,1.703761 1.550658,0 3.968897,-1.805829 6.921034,-1.805829 1.118828,0 5.138758,0.102072 7.78469,3.894308 z m -9.18617,-7.12517 c 1.220896,-1.44859 2.084556,-3.458554 2.084556,-5.46852 0,-0.278728 -0.02356,-0.561372 -0.07459,-0.789068 -1.986412,0.07459 -4.349692,1.322965 -5.774725,2.975692 -1.118829,1.271929 -2.163068,3.281896 -2.163068,5.31934 0,0.306207 0.05102,0.612413 0.07459,0.710555 0.125617,0.02356 0.329761,0.05102 0.533897,0.05102 1.782274,0 4.023855,-1.193417 5.319341,-2.799034 z"
       id="path15012"
       style="stroke-width:0.0392571"
       sodipodi:nodetypes="csccsscscsssccsccscscc" />
  </g>
</svg>
