<?xml version="1.0" encoding="UTF-8" standalone="no"?>
<!-- Created with Inkscape (http://www.inkscape.org/) -->

<svg
   width="205.70914mm"
   height="46.667469mm"
   viewBox="0 0 205.70914 46.66747"
   version="1.1"
   id="svg5"
   inkscape:version="1.2.1 (2ed6d7ae0b, 2022-08-22, custom)"
   sodipodi:docname="ileakage-twobites.svg"
   xmlns:inkscape="http://www.inkscape.org/namespaces/inkscape"
   xmlns:sodipodi="http://sodipodi.sourceforge.net/DTD/sodipodi-0.dtd"
   xmlns="http://www.w3.org/2000/svg"
   xmlns:svg="http://www.w3.org/2000/svg">
  <sodipodi:namedview
     id="namedview7"
     pagecolor="#ffffff"
     bordercolor="#666666"
     borderopacity="1.0"
     inkscape:pageshadow="2"
     inkscape:pageopacity="0.0"
     inkscape:pagecheckerboard="0"
     inkscape:document-units="mm"
     showgrid="false"
     inkscape:zoom="1.4681257"
     inkscape:cx="395.74269"
     inkscape:cy="268.3694"
     inkscape:window-width="1600"
     inkscape:window-height="1243"
     inkscape:window-x="20"
     inkscape:window-y="20"
     inkscape:window-maximized="0"
     inkscape:current-layer="layer1"
     fit-margin-top="0"
     fit-margin-left="0"
     fit-margin-right="0"
     fit-margin-bottom="0"
     inkscape:showpageshadow="2"
     inkscape:deskcolor="#d1d1d1" />
  <defs
     id="defs2" />
  <g
     inkscape:label="Layer 1"
     inkscape:groupmode="layer"
     id="layer1"
     transform="translate(-24.467392,-11.944796)">
    <g
       aria-label="iLeakage"
       id="text6279"
       style="font-size:45.8611px;line-height:1.25;font-family:'Myriad Pro';-inkscape-font-specification:'Myriad Pro';stroke-width:0.264583">
      <path
         d="M 62.462879,49.027294 V 26.692939 H 56.821964 V 49.027294 Z M 59.665352,17.383136 c -1.880305,0 -3.164415,1.329972 -3.164415,3.072693 0,1.651 1.238249,3.026833 3.118554,3.026833 1.972028,0 3.210277,-1.375833 3.210277,-3.026833 -0.04586,-1.742721 -1.238249,-3.072693 -3.164416,-3.072693 z"
         style="font-weight:600;-inkscape-font-specification:'Myriad Pro Semi-Bold'"
         id="path508" />
      <path
         d="m 68.791647,49.027294 h 18.34444 V 44.303601 H 74.432562 V 18.116913 h -5.640915 z"
         style="font-weight:600;-inkscape-font-specification:'Myriad Pro Semi-Bold'"
         id="path510" />
      <path
         d="m 109.60787,39.442324 c 0.0917,-0.504472 0.18344,-1.329971 0.18344,-2.384777 0,-4.907137 -2.38478,-10.86908 -9.63083,-10.86908 -7.154331,0 -10.914942,5.824359 -10.914942,12.015608 0,6.833304 4.265083,11.28183 11.511132,11.28183 3.21028,0 5.87023,-0.596194 7.79639,-1.421694 l -0.8255,-3.852332 c -1.74272,0.596194 -3.57716,1.008944 -6.19125,1.008944 -3.623024,0 -6.741579,-1.742722 -6.879162,-5.778499 z M 94.657148,35.49827 c 0.229306,-2.293055 1.696861,-5.457471 5.182304,-5.457471 3.760608,0 4.677828,3.393721 4.631968,5.457471 z"
         style="font-weight:600;-inkscape-font-specification:'Myriad Pro Semi-Bold'"
         id="path512" />
      <path
         d="m 131.667,35.635853 c 0,-4.907137 -2.06375,-9.447386 -9.21808,-9.447386 -3.5313,0 -6.42055,0.963083 -8.07155,1.972027 l 1.10067,3.668888 c 1.51341,-0.963083 3.80647,-1.651 6.0078,-1.651 3.94405,0 4.54025,2.430639 4.54025,3.898194 v 0.366889 c -8.255,-0.04586 -13.25386,2.843388 -13.25386,8.438442 0,3.393721 2.52236,6.649859 7.01675,6.649859 2.93511,0 5.27403,-1.238249 6.604,-2.980971 h 0.13758 l 0.41275,2.476499 h 5.09058 c -0.27516,-1.375833 -0.36689,-3.34786 -0.36689,-5.365748 z m -5.50333,5.549193 c 0,0.41275 0,0.8255 -0.13758,1.23825 -0.55033,1.605138 -2.15547,3.072694 -4.44853,3.072694 -1.78858,0 -3.21027,-1.008945 -3.21027,-3.210277 0,-3.393722 3.80647,-4.219222 7.79638,-4.17336 z"
         style="font-weight:600;-inkscape-font-specification:'Myriad Pro Semi-Bold'"
         id="path514" />
      <path
         d="m 143.26983,16.465914 h -5.64091 v 32.56138 h 5.64091 v -7.612942 l 1.88031,-2.247194 6.42055,9.860136 h 6.92503 l -9.44739,-13.207996 8.30086,-9.126359 h -6.78744 l -5.45747,7.200192 c -0.55034,0.779639 -1.19239,1.742722 -1.74272,2.614083 h -0.0917 z"
         style="font-weight:600;-inkscape-font-specification:'Myriad Pro Semi-Bold'"
         id="path516" />
      <path
         d="m 178.81212,35.635853 c 0,-4.907137 -2.06375,-9.447386 -9.21808,-9.447386 -3.5313,0 -6.42055,0.963083 -8.07155,1.972027 l 1.10066,3.668888 c 1.51342,-0.963083 3.80648,-1.651 6.00781,-1.651 3.94405,0 4.54025,2.430639 4.54025,3.898194 v 0.366889 c -8.255,-0.04586 -13.25386,2.843388 -13.25386,8.438442 0,3.393721 2.52236,6.649859 7.01675,6.649859 2.93511,0 5.27402,-1.238249 6.604,-2.980971 h 0.13758 l 0.41275,2.476499 h 5.09058 c -0.27516,-1.375833 -0.36689,-3.34786 -0.36689,-5.365748 z m -5.50333,5.549193 c 0,0.41275 0,0.8255 -0.13758,1.23825 -0.55034,1.605138 -2.15547,3.072694 -4.44853,3.072694 -1.78858,0 -3.21028,-1.008945 -3.21028,-3.210277 0,-3.393722 3.80648,-4.219222 7.79639,-4.17336 z"
         style="font-weight:600;-inkscape-font-specification:'Myriad Pro Semi-Bold'"
         id="path518" />
      <path
         d="m 204.99878,33.113493 c 0,-3.072694 0.0917,-4.907138 0.18345,-6.420554 h -4.90714 l -0.22931,2.980971 h -0.0917 c -1.05481,-1.834444 -3.02683,-3.485443 -6.46641,-3.485443 -5.36575,0 -10.13531,4.448526 -10.13531,11.786302 0,6.328832 3.94406,10.914942 9.49325,10.914942 2.98097,0 5.22817,-1.329972 6.51228,-3.301999 h 0.0917 v 1.926166 c 0,4.815415 -2.75167,6.741581 -6.42056,6.741581 -2.7058,0 -5.09058,-0.87136 -6.51227,-1.69686 l -1.23825,4.265082 c 1.92616,1.146528 4.953,1.788583 7.79639,1.788583 3.07269,0 6.32883,-0.642055 8.62188,-2.705805 2.33892,-2.109611 3.302,-5.457471 3.302,-10.135303 z m -5.64091,6.145387 c 0,0.642055 -0.0459,1.421694 -0.22931,1.972027 -0.64205,2.06375 -2.4765,3.439583 -4.58611,3.439583 -3.5313,0 -5.45747,-3.072694 -5.45747,-6.879165 0,-4.540249 2.33892,-7.291915 5.50333,-7.291915 2.38478,0 3.98992,1.559277 4.58611,3.623027 0.13758,0.458611 0.18345,0.963083 0.18345,1.513416 z"
         style="font-weight:600;-inkscape-font-specification:'Myriad Pro Semi-Bold'"
         id="path520" />
      <path
         d="m 229.99308,39.442324 c 0.0917,-0.504472 0.18345,-1.329971 0.18345,-2.384777 0,-4.907137 -2.38478,-10.86908 -9.63083,-10.86908 -7.15434,0 -10.91495,5.824359 -10.91495,12.015608 0,6.833304 4.26509,11.28183 11.51114,11.28183 3.21028,0 5.87022,-0.596194 7.79639,-1.421694 l -0.8255,-3.852332 c -1.74272,0.596194 -3.57717,1.008944 -6.19125,1.008944 -3.62303,0 -6.74158,-1.742722 -6.87917,-5.778499 z M 215.04236,35.49827 c 0.22931,-2.293055 1.69686,-5.457471 5.18231,-5.457471 3.76061,0 4.67783,3.393721 4.63197,5.457471 z"
         style="font-weight:600;-inkscape-font-specification:'Myriad Pro Semi-Bold'"
         id="path522" />
    </g>
    <path
       d="m 41.340392,35.069738 c -6.454288,12.465821 10.47841,11.419535 -0.332187,13.968518 -2.525891,0 -3.175937,-1.46724 -6.091856,-1.46724 -2.841627,0 -3.851984,1.51553 -6.162431,1.51553 -11.957004,-2.602873 6.083374,-1.534803 -0.530876,-13.739749 -0.04781,-0.08822 -0.08315,-0.183953 -0.12665,-0.277059 6.392567,-12.381422 -11.077014,-11.020519 0.315787,-14.147 2.367775,-0.649779 4.50203,1.708808 6.043567,1.708808 1.467245,0 3.755406,-1.70869 6.548744,-1.70869 10.653014,3.070068 -6.551943,1.738948 0.335902,14.146882 z M 39.678397,17.865786 c 1.155224,-1.37067 1.972424,-3.27251 1.972424,-5.17436 0,-0.26373 -0.02229,-0.53118 -0.07058,-0.74663 -1.87956,0.0706 -4.115717,1.25181 -5.464097,2.81563 -1.058646,1.20351 -2.046715,3.10536 -2.046715,5.03321 0,0.28973 0.04829,0.57947 0.07058,0.67233 0.118866,0.0223 0.312022,0.0483 0.505179,0.0483 1.686404,0 3.807409,-1.12922 5.033209,-2.64847 z"
       id="path458"
       style="stroke-width:0.0371454"
       sodipodi:nodetypes="ccscscsscccsccscscc" />
  </g>
</svg>
