<?xml version="1.0" encoding="UTF-8" standalone="no"?>
<!-- Created with Inkscape (http://www.inkscape.org/) -->

<svg
   width="257.73859mm"
   height="56.846809mm"
   viewBox="0 0 257.73859 56.84681"
   version="1.1"
   id="svg5"
   inkscape:version="1.1 (c68e22c387, 2021-05-23)"
   sodipodi:docname="ileakage.svg"
   xmlns:inkscape="http://www.inkscape.org/namespaces/inkscape"
   xmlns:sodipodi="http://sodipodi.sourceforge.net/DTD/sodipodi-0.dtd"
   xmlns="http://www.w3.org/2000/svg"
   xmlns:svg="http://www.w3.org/2000/svg">
  <sodipodi:namedview
     id="namedview7"
     pagecolor="#ffffff"
     bordercolor="#666666"
     borderopacity="1.0"
     inkscape:pageshadow="2"
     inkscape:pageopacity="0.0"
     inkscape:pagecheckerboard="0"
     inkscape:document-units="mm"
     showgrid="false"
     inkscape:zoom="1.0381216"
     inkscape:cx="239.37465"
     inkscape:cy="164.23894"
     inkscape:window-width="1920"
     inkscape:window-height="1009"
     inkscape:window-x="-8"
     inkscape:window-y="-8"
     inkscape:window-maximized="1"
     inkscape:current-layer="layer1"
     fit-margin-top="0"
     fit-margin-left="0"
     fit-margin-right="0"
     fit-margin-bottom="0" />
  <defs
     id="defs2" />
  <g
     inkscape:label="Layer 1"
     inkscape:groupmode="layer"
     id="layer1"
     transform="translate(-14.14259,-5.9235417)">
    <path
       d="m 46.708074,21.107292 c -0.258332,0.20043 -12.00742,-1.550713 -12.38842,12.089269 -0.441649,15.811257 10.984865,7.517636 11.969554,8.679374 0,0 0.65493,-0.07528 -1.482998,3.042527 -1.90632,2.74368 -3.897266,5.4829 -6.925997,5.4829 -3.028732,0 -3.808185,-1.75934 -7.304588,-1.75934 -3.407323,0 -4.618816,1.81724 -7.389214,1.81724 -2.770399,0 -3.747689,-2.53879 -5.970244,-5.6566 -0.354972,-0.504821 -1.032632,-1.11385 -0.837836,-1.28043 1.217957,-1.041538 12.271271,3.077785 12.528607,-10.403106 0.292719,-15.334504 -16.268791,-9.733078 -14.653386,-11.90817 2.157305,-2.904741 5.35476,-4.406244 8.523089,-4.406244 2.944105,0 5.398269,1.93304 7.246686,1.93304 1.759337,0 4.503011,-2.04885 7.852432,-2.04885 1.269394,0 5.830309,0.11581 8.832315,4.41839 z m -10.4224,-8.08404 c 1.385201,-1.64354 2.365084,-3.9239903 2.365084,-6.2044503 0,-0.31623 -0.02672,-0.63692 -0.08463,-0.89526 -2.253733,0.0846 -4.93505,1.50101 -6.551859,3.37615 -1.269394,1.4431003 -2.454163,3.7235603 -2.454163,6.0351903 0,0.34741 0.0579,0.69483 0.08463,0.80618 0.142529,0.0267 0.374138,0.0579 0.605746,0.0579 2.022125,0 4.565367,-1.35402 6.035192,-3.17571 z"
       id="path9"
       style="stroke-width:0.0445401"
       sodipodi:nodetypes="csccssscssssssccsccscsc" />
    <text
       xml:space="preserve"
       style="font-size:56.4444px;line-height:1.25;font-family:'Myriad Pro';-inkscape-font-specification:'Myriad Pro';stroke-width:0.264583"
       x="54.796486"
       y="50.973473"
       id="text6279"><tspan
         sodipodi:role="line"
         id="tspan6277"
         style="font-style:normal;font-variant:normal;font-weight:600;font-stretch:normal;font-size:56.4444px;font-family:'Myriad Pro';-inkscape-font-specification:'Myriad Pro Semi-Bold';stroke-width:0.264583"
         x="54.796486"
         y="50.973473">iLeakage</tspan></text>
  </g>
</svg>
