<?xml version="1.0" encoding="UTF-8" standalone="no"?>
<!-- Created with Inkscape (http://www.inkscape.org/) -->

<svg
   width="208.29872mm"
   height="47.282169mm"
   viewBox="0 0 208.29872 47.28217"
   version="1.1"
   id="svg5"
   inkscape:version="1.1 (c68e22c387, 2021-05-23)"
   sodipodi:docname="ileakage.svg"
   xmlns:inkscape="http://www.inkscape.org/namespaces/inkscape"
   xmlns:sodipodi="http://sodipodi.sourceforge.net/DTD/sodipodi-0.dtd"
   xmlns="http://www.w3.org/2000/svg"
   xmlns:svg="http://www.w3.org/2000/svg">
  <sodipodi:namedview
     id="namedview7"
     pagecolor="#ffffff"
     bordercolor="#666666"
     borderopacity="1.0"
     inkscape:pageshadow="2"
     inkscape:pageopacity="0.0"
     inkscape:pagecheckerboard="0"
     inkscape:document-units="mm"
     showgrid="false"
     inkscape:zoom="1.4681256"
     inkscape:cx="347.04114"
     inkscape:cy="75.947178"
     inkscape:window-width="1920"
     inkscape:window-height="1009"
     inkscape:window-x="1912"
     inkscape:window-y="-8"
     inkscape:window-maximized="1"
     inkscape:current-layer="layer1"
     fit-margin-top="0"
     fit-margin-left="0"
     fit-margin-right="0"
     fit-margin-bottom="0" />
  <defs
     id="defs2" />
  <g
     inkscape:label="Layer 1"
     inkscape:groupmode="layer"
     id="layer1"
     transform="translate(-17.913005,-5.9235417)">
    <path
       d="m 43.013596,21.107292 c -8.068593,5.501923 -8.552567,7.864514 -7.515938,13.807844 2.152869,12.34309 4.653733,12.321857 1.124342,15.301673 -2.775599,2.343401 -2.549972,-1.574787 -6.046375,-1.574787 -3.407323,0 -2.515718,3.508344 -5.658591,1.476129 -3.965216,-2.563951 2.000357,-8.136319 2.51716,-17.137303 0.758504,-13.210614 -18.1365398,-8.885745 -4.657553,-16.176136 2.683542,-1.210931 5.398269,1.93304 7.246686,1.93304 1.759337,0 4.503011,-2.04885 7.852432,-2.04885 1.269394,0 7.556494,2.769123 5.137837,4.41839 z m -6.727922,-8.08404 c 1.385201,-1.64354 2.365084,-3.9239903 2.365084,-6.2044503 0,-0.31623 -0.02672,-0.63692 -0.08463,-0.89526 -2.253733,0.0846 -4.93505,1.50101 -6.551859,3.37615 -1.269394,1.4431003 -2.454163,3.7235603 -2.454163,6.0351903 0,0.34741 0.0579,0.69483 0.08463,0.80618 0.142529,0.0267 0.374138,0.0579 0.605746,0.0579 2.022125,0 4.565367,-1.35402 6.035192,-3.17571 z"
       id="path9"
       style="stroke-width:0.0445401"
       sodipodi:nodetypes="sssssscssscsccscsc" />
    <text
       xml:space="preserve"
       style="font-size:45.8611px;line-height:1.25;font-family:'Myriad Pro';-inkscape-font-specification:'Myriad Pro';stroke-width:0.264583"
       x="53.795132"
       y="49.027294"
       id="text6279"><tspan
         sodipodi:role="line"
         id="tspan6277"
         style="font-style:normal;font-variant:normal;font-weight:600;font-stretch:normal;font-size:45.8611px;font-family:'Myriad Pro';-inkscape-font-specification:'Myriad Pro Semi-Bold';stroke-width:0.264583"
         x="53.795132"
         y="49.027294">iLeakage</tspan></text>
  </g>
</svg>
